<?xml version="1.0" encoding="UTF-8" standalone="no"?>
<!-- Created with matplotlib (https://matplotlib.org/) -->

<svg
   xmlns:dc="http://purl.org/dc/elements/1.1/"
   xmlns:cc="http://creativecommons.org/ns#"
   xmlns:rdf="http://www.w3.org/1999/02/22-rdf-syntax-ns#"
   xmlns:svg="http://www.w3.org/2000/svg"
   xmlns="http://www.w3.org/2000/svg"
   xmlns:xlink="http://www.w3.org/1999/xlink"
   xmlns:sodipodi="http://sodipodi.sourceforge.net/DTD/sodipodi-0.dtd"
   xmlns:inkscape="http://www.inkscape.org/namespaces/inkscape"
   height="345.6pt"
   version="1.1"
   viewBox="0 0 460.8 345.6"
   width="460.8pt"
   id="svg2"
   inkscape:version="0.91 r13725"
   sodipodi:docname="framing.svg">
  <metadata
     id="metadata267">
    <rdf:RDF>
      <cc:Work
         rdf:about="">
        <dc:format>image/svg+xml</dc:format>
        <dc:type
           rdf:resource="http://purl.org/dc/dcmitype/StillImage" />
        <dc:title></dc:title>
      </cc:Work>
    </rdf:RDF>
  </metadata>
  <sodipodi:namedview
     pagecolor="#ffffff"
     bordercolor="#666666"
     borderopacity="1"
     objecttolerance="10"
     gridtolerance="10"
     guidetolerance="10"
     inkscape:pageopacity="0"
     inkscape:pageshadow="2"
     inkscape:window-width="1280"
     inkscape:window-height="776"
     id="namedview265"
     showgrid="false"
     inkscape:zoom="0.77257962"
     inkscape:cx="650.10527"
     inkscape:cy="152.52489"
     inkscape:window-x="0"
     inkscape:window-y="24"
     inkscape:window-maximized="1"
     inkscape:current-layer="axes_1" />
  <defs
     id="defs4">
    <style
       type="text/css"
       id="style6">
*{stroke-linecap:butt;stroke-linejoin:round;}
  </style>
  </defs>
  <g
     id="figure_1">
    <g
       id="patch_1">
      <path
         d="M 0 345.6  L 460.8 345.6  L 460.8 0  L 0 0  z "
         style="fill:#ffffff;"
         id="path10" />
    </g>
    <g
       id="axes_1">
      <g
         id="patch_2">
        <path
           d="M 24.19 317.72  L 437.355 317.72  L 437.355 10.8  L 24.19 10.8  z "
           style="fill:#ffffff;"
           id="path14" />
      </g>
      <g
         id="matplotlib.axis_1">
        <g
           id="xtick_1">
          <g
             id="line2d_1">
            <defs
               id="defs19">
              <path
                 d="M 0 0  L 0 3.5  "
                 id="m2ed525eed8"
                 style="stroke:#000000;stroke-width:0.8;" />
            </defs>
            <g
               id="g22">
              <use
                 style="stroke:#000000;stroke-width:0.8;"
                 x="24.19"
                 xlink:href="#m2ed525eed8"
                 y="317.72"
                 id="use24" />
            </g>
          </g>
          <g
             id="text_1">
            <!-- 0 -->
            <defs
               id="defs27">
              <path
                 d="M 31.78125 66.40625  Q 24.171875 66.40625 20.328125 58.90625  Q 16.5 51.421875 16.5 36.375  Q 16.5 21.390625 20.328125 13.890625  Q 24.171875 6.390625 31.78125 6.390625  Q 39.453125 6.390625 43.28125 13.890625  Q 47.125 21.390625 47.125 36.375  Q 47.125 51.421875 43.28125 58.90625  Q 39.453125 66.40625 31.78125 66.40625  z M 31.78125 74.21875  Q 44.046875 74.21875 50.515625 64.515625  Q 56.984375 54.828125 56.984375 36.375  Q 56.984375 17.96875 50.515625 8.265625  Q 44.046875 -1.421875 31.78125 -1.421875  Q 19.53125 -1.421875 13.0625 8.265625  Q 6.59375 17.96875 6.59375 36.375  Q 6.59375 54.828125 13.0625 64.515625  Q 19.53125 74.21875 31.78125 74.21875  z "
                 id="DejaVuSans-48" />
            </defs>
            <g
               transform="translate(21.00875 332.318437)scale(0.1 -0.1)"
               id="g30">
              <use
                 xlink:href="#DejaVuSans-48"
                 id="use32" />
            </g>
          </g>
        </g>
        <g
           id="xtick_2">
          <g
             id="line2d_2">
            <g
               id="g36">
              <use
                 style="stroke:#000000;stroke-width:0.8;"
                 x="93.050833"
                 xlink:href="#m2ed525eed8"
                 y="317.72"
                 id="use38" />
            </g>
          </g>
          <g
             id="text_2">
            <!-- 200 -->
            <defs
               id="defs41">
              <path
                 d="M 19.1875 8.296875  L 53.609375 8.296875  L 53.609375 0  L 7.328125 0  L 7.328125 8.296875  Q 12.9375 14.109375 22.625 23.890625  Q 32.328125 33.6875 34.8125 36.53125  Q 39.546875 41.84375 41.421875 45.53125  Q 43.3125 49.21875 43.3125 52.78125  Q 43.3125 58.59375 39.234375 62.25  Q 35.15625 65.921875 28.609375 65.921875  Q 23.96875 65.921875 18.8125 64.3125  Q 13.671875 62.703125 7.8125 59.421875  L 7.8125 69.390625  Q 13.765625 71.78125 18.9375 73  Q 24.125 74.21875 28.421875 74.21875  Q 39.75 74.21875 46.484375 68.546875  Q 53.21875 62.890625 53.21875 53.421875  Q 53.21875 48.921875 51.53125 44.890625  Q 49.859375 40.875 45.40625 35.40625  Q 44.1875 33.984375 37.640625 27.21875  Q 31.109375 20.453125 19.1875 8.296875  z "
                 id="DejaVuSans-50" />
            </defs>
            <g
               transform="translate(83.507083 332.318437)scale(0.1 -0.1)"
               id="g44">
              <use
                 xlink:href="#DejaVuSans-50"
                 id="use46" />
              <use
                 x="63.623047"
                 xlink:href="#DejaVuSans-48"
                 id="use48" />
              <use
                 x="127.246094"
                 xlink:href="#DejaVuSans-48"
                 id="use50" />
            </g>
          </g>
        </g>
        <g
           id="xtick_3">
          <g
             id="line2d_3">
            <g
               id="g54">
              <use
                 style="stroke:#000000;stroke-width:0.8;"
                 x="161.911667"
                 xlink:href="#m2ed525eed8"
                 y="317.72"
                 id="use56" />
            </g>
          </g>
          <g
             id="text_3">
            <!-- 400 -->
            <defs
               id="defs59">
              <path
                 d="M 37.796875 64.3125  L 12.890625 25.390625  L 37.796875 25.390625  z M 35.203125 72.90625  L 47.609375 72.90625  L 47.609375 25.390625  L 58.015625 25.390625  L 58.015625 17.1875  L 47.609375 17.1875  L 47.609375 0  L 37.796875 0  L 37.796875 17.1875  L 4.890625 17.1875  L 4.890625 26.703125  z "
                 id="DejaVuSans-52" />
            </defs>
            <g
               transform="translate(152.367917 332.318437)scale(0.1 -0.1)"
               id="g62">
              <use
                 xlink:href="#DejaVuSans-52"
                 id="use64" />
              <use
                 x="63.623047"
                 xlink:href="#DejaVuSans-48"
                 id="use66" />
              <use
                 x="127.246094"
                 xlink:href="#DejaVuSans-48"
                 id="use68" />
            </g>
          </g>
        </g>
        <g
           id="xtick_4">
          <g
             id="line2d_4">
            <g
               id="g72">
              <use
                 style="stroke:#000000;stroke-width:0.8;"
                 x="230.7725"
                 xlink:href="#m2ed525eed8"
                 y="317.72"
                 id="use74" />
            </g>
          </g>
          <g
             id="text_4">
            <!-- 600 -->
            <defs
               id="defs77">
              <path
                 d="M 33.015625 40.375  Q 26.375 40.375 22.484375 35.828125  Q 18.609375 31.296875 18.609375 23.390625  Q 18.609375 15.53125 22.484375 10.953125  Q 26.375 6.390625 33.015625 6.390625  Q 39.65625 6.390625 43.53125 10.953125  Q 47.40625 15.53125 47.40625 23.390625  Q 47.40625 31.296875 43.53125 35.828125  Q 39.65625 40.375 33.015625 40.375  z M 52.59375 71.296875  L 52.59375 62.3125  Q 48.875 64.0625 45.09375 64.984375  Q 41.3125 65.921875 37.59375 65.921875  Q 27.828125 65.921875 22.671875 59.328125  Q 17.53125 52.734375 16.796875 39.40625  Q 19.671875 43.65625 24.015625 45.921875  Q 28.375 48.1875 33.59375 48.1875  Q 44.578125 48.1875 50.953125 41.515625  Q 57.328125 34.859375 57.328125 23.390625  Q 57.328125 12.15625 50.6875 5.359375  Q 44.046875 -1.421875 33.015625 -1.421875  Q 20.359375 -1.421875 13.671875 8.265625  Q 6.984375 17.96875 6.984375 36.375  Q 6.984375 53.65625 15.1875 63.9375  Q 23.390625 74.21875 37.203125 74.21875  Q 40.921875 74.21875 44.703125 73.484375  Q 48.484375 72.75 52.59375 71.296875  z "
                 id="DejaVuSans-54" />
            </defs>
            <g
               transform="translate(221.22875 332.318437)scale(0.1 -0.1)"
               id="g80">
              <use
                 xlink:href="#DejaVuSans-54"
                 id="use82" />
              <use
                 x="63.623047"
                 xlink:href="#DejaVuSans-48"
                 id="use84" />
              <use
                 x="127.246094"
                 xlink:href="#DejaVuSans-48"
                 id="use86" />
            </g>
          </g>
        </g>
        <g
           id="xtick_5">
          <g
             id="line2d_5">
            <g
               id="g90">
              <use
                 style="stroke:#000000;stroke-width:0.8;"
                 x="299.633333"
                 xlink:href="#m2ed525eed8"
                 y="317.72"
                 id="use92" />
            </g>
          </g>
          <g
             id="text_5">
            <!-- 800 -->
            <defs
               id="defs95">
              <path
                 d="M 31.78125 34.625  Q 24.75 34.625 20.71875 30.859375  Q 16.703125 27.09375 16.703125 20.515625  Q 16.703125 13.921875 20.71875 10.15625  Q 24.75 6.390625 31.78125 6.390625  Q 38.8125 6.390625 42.859375 10.171875  Q 46.921875 13.96875 46.921875 20.515625  Q 46.921875 27.09375 42.890625 30.859375  Q 38.875 34.625 31.78125 34.625  z M 21.921875 38.8125  Q 15.578125 40.375 12.03125 44.71875  Q 8.5 49.078125 8.5 55.328125  Q 8.5 64.0625 14.71875 69.140625  Q 20.953125 74.21875 31.78125 74.21875  Q 42.671875 74.21875 48.875 69.140625  Q 55.078125 64.0625 55.078125 55.328125  Q 55.078125 49.078125 51.53125 44.71875  Q 48 40.375 41.703125 38.8125  Q 48.828125 37.15625 52.796875 32.3125  Q 56.78125 27.484375 56.78125 20.515625  Q 56.78125 9.90625 50.3125 4.234375  Q 43.84375 -1.421875 31.78125 -1.421875  Q 19.734375 -1.421875 13.25 4.234375  Q 6.78125 9.90625 6.78125 20.515625  Q 6.78125 27.484375 10.78125 32.3125  Q 14.796875 37.15625 21.921875 38.8125  z M 18.3125 54.390625  Q 18.3125 48.734375 21.84375 45.5625  Q 25.390625 42.390625 31.78125 42.390625  Q 38.140625 42.390625 41.71875 45.5625  Q 45.3125 48.734375 45.3125 54.390625  Q 45.3125 60.0625 41.71875 63.234375  Q 38.140625 66.40625 31.78125 66.40625  Q 25.390625 66.40625 21.84375 63.234375  Q 18.3125 60.0625 18.3125 54.390625  z "
                 id="DejaVuSans-56" />
            </defs>
            <g
               transform="translate(290.089583 332.318437)scale(0.1 -0.1)"
               id="g98">
              <use
                 xlink:href="#DejaVuSans-56"
                 id="use100" />
              <use
                 x="63.623047"
                 xlink:href="#DejaVuSans-48"
                 id="use102" />
              <use
                 x="127.246094"
                 xlink:href="#DejaVuSans-48"
                 id="use104" />
            </g>
          </g>
        </g>
        <g
           id="xtick_6">
          <g
             id="line2d_6">
            <g
               id="g108">
              <use
                 style="stroke:#000000;stroke-width:0.8;"
                 x="368.494167"
                 xlink:href="#m2ed525eed8"
                 y="317.72"
                 id="use110" />
            </g>
          </g>
          <g
             id="text_6">
            <!-- 1000 -->
            <defs
               id="defs113">
              <path
                 d="M 12.40625 8.296875  L 28.515625 8.296875  L 28.515625 63.921875  L 10.984375 60.40625  L 10.984375 69.390625  L 28.421875 72.90625  L 38.28125 72.90625  L 38.28125 8.296875  L 54.390625 8.296875  L 54.390625 0  L 12.40625 0  z "
                 id="DejaVuSans-49" />
            </defs>
            <g
               transform="translate(355.769167 332.318437)scale(0.1 -0.1)"
               id="g116">
              <use
                 xlink:href="#DejaVuSans-49"
                 id="use118" />
              <use
                 x="63.623047"
                 xlink:href="#DejaVuSans-48"
                 id="use120" />
              <use
                 x="127.246094"
                 xlink:href="#DejaVuSans-48"
                 id="use122" />
              <use
                 x="190.869141"
                 xlink:href="#DejaVuSans-48"
                 id="use124" />
            </g>
          </g>
        </g>
        <g
           id="xtick_7">
          <g
             id="line2d_7">
            <g
               id="g128">
              <use
                 style="stroke:#000000;stroke-width:0.8;"
                 x="437.355"
                 xlink:href="#m2ed525eed8"
                 y="317.72"
                 id="use130" />
            </g>
          </g>
          <g
             id="text_7">
            <!-- 1200 -->
            <g
               transform="translate(424.63 332.318437)scale(0.1 -0.1)"
               id="g133">
              <use
                 xlink:href="#DejaVuSans-49"
                 id="use135" />
              <use
                 x="63.623047"
                 xlink:href="#DejaVuSans-50"
                 id="use137" />
              <use
                 x="127.246094"
                 xlink:href="#DejaVuSans-48"
                 id="use139" />
              <use
                 x="190.869141"
                 xlink:href="#DejaVuSans-48"
                 id="use141" />
            </g>
          </g>
        </g>
      </g>
      <g
         id="matplotlib.axis_2">
        <g
           id="ytick_2"
           transform="translate(0,22.4)"
           style="stroke-linecap:butt;stroke-linejoin:round">
          <g
             id="text_9"
             style="stroke-linecap:butt;stroke-linejoin:round">
            <!-- 1 -->
            <g
               transform="matrix(0.1,0,0,-0.1,10.8275,82.159941)"
               id="g165"
               style="stroke-linecap:butt;stroke-linejoin:round">
              <use
                 xlink:href="#DejaVuSans-49"
                 id="use167"
                 style="stroke-linecap:butt;stroke-linejoin:round"
                 x="0"
                 y="0"
                 width="100%"
                 height="100%" />
            </g>
          </g>
        </g>
        <g
           id="ytick_3"
           transform="translate(0,22.4)"
           style="stroke-linecap:butt;stroke-linejoin:round">
          <g
             id="text_10"
             style="stroke-linecap:butt;stroke-linejoin:round">
            <!-- 2 -->
            <g
               transform="matrix(0.1,0,0,-0.1,10.8275,127.14015)"
               id="g176"
               style="stroke-linecap:butt;stroke-linejoin:round">
              <use
                 xlink:href="#DejaVuSans-50"
                 id="use178"
                 style="stroke-linecap:butt;stroke-linejoin:round"
                 x="0"
                 y="0"
                 width="100%"
                 height="100%" />
            </g>
          </g>
        </g>
        <g
           id="ytick_4"
           transform="translate(0,22.4)"
           style="stroke-linecap:butt;stroke-linejoin:round">
          <g
             id="text_11"
             style="stroke-linecap:butt;stroke-linejoin:round">
            <!-- 3 -->
            <defs
               id="defs187">
              <path
                 d="M 40.578125,39.3125 Q 47.65625,37.796875 51.625,33 q 3.984375,-4.78125 3.984375,-11.8125 0,-10.78125 -7.421875,-16.703125 -7.421875,-5.90625 -21.09375,-5.90625 -4.578125,0 -9.4375,0.90625 -4.859375,0.90625 -10.03125,2.71875 l 0,9.515625 q 4.09375,-2.390625 8.96875,-3.609375 4.890625,-1.21875 10.21875,-1.21875 9.265625,0 14.125,3.65625 4.859375,3.65625 4.859375,10.640625 0,6.453125 -4.515625,10.078125 -4.515625,3.640625 -12.5625,3.640625 l -8.5,0 0,8.109375 8.890625,0 q 7.265625,0 11.125,2.90625 3.859375,2.90625 3.859375,8.375 0,5.609375 -3.984375,8.609375 -3.96875,3.015625 -11.390625,3.015625 -4.0625,0 -8.703125,-0.890625 Q 15.375,64.15625 9.8125,62.3125 l 0,8.78125 q 5.625,1.5625 10.53125,2.34375 4.90625,0.78125 9.25,0.78125 11.234375,0 17.765625,-5.109375 6.546875,-5.09375 6.546875,-13.78125 0,-6.0625 -3.46875,-10.234375 -3.46875,-4.171875 -9.859375,-5.78125 z"
                 id="DejaVuSans-51"
                 inkscape:connector-curvature="0"
                 style="stroke-linecap:butt;stroke-linejoin:round" />
            </defs>
            <g
               transform="matrix(0.1,0,0,-0.1,10.8275,172.12036)"
               id="g190"
               style="stroke-linecap:butt;stroke-linejoin:round">
              <use
                 xlink:href="#DejaVuSans-51"
                 id="use192"
                 style="stroke-linecap:butt;stroke-linejoin:round"
                 x="0"
                 y="0"
                 width="100%"
                 height="100%" />
            </g>
          </g>
        </g>
        <g
           id="ytick_5"
           transform="translate(0,22.4)"
           style="stroke-linecap:butt;stroke-linejoin:round">
          <g
             id="line2d_12"
             style="stroke-linecap:butt;stroke-linejoin:round">
            <g
               id="g196"
               style="stroke-linecap:butt;stroke-linejoin:round" />
          </g>
          <g
             id="text_12"
             style="stroke-linecap:butt;stroke-linejoin:round">
            <!-- 4 -->
            <g
               transform="matrix(0.1,0,0,-0.1,10.8275,217.10057)"
               id="g201"
               style="stroke-linecap:butt;stroke-linejoin:round">
              <use
                 xlink:href="#DejaVuSans-52"
                 id="use203"
                 style="stroke-linecap:butt;stroke-linejoin:round"
                 x="0"
                 y="0"
                 width="100%"
                 height="100%" />
            </g>
          </g>
        </g>
        <g
           id="ytick_6"
           transform="translate(0,22.4)"
           style="stroke-linecap:butt;stroke-linejoin:round">
          <g
             id="text_13"
             style="stroke-linecap:butt;stroke-linejoin:round">
            <!-- 5 -->
            <defs
               id="defs212">
              <path
                 d="m 10.796875,72.90625 38.71875,0 0,-8.3125 -29.6875,0 0,-17.859375 q 2.140625,0.734375 4.28125,1.09375 2.15625,0.359375 4.3125,0.359375 Q 40.625,48.1875 47.75,41.5 54.890625,34.8125 54.890625,23.390625 54.890625,11.625 47.5625,5.09375 40.234375,-1.421875 26.90625,-1.421875 q -4.59375,0 -9.359375,0.78125 -4.75,0.78125 -9.828125,2.34375 l 0,9.921875 q 4.390625,-2.390625 9.078125,-3.5625 4.6875,-1.171875 9.90625,-1.171875 8.453125,0 13.375,4.4375 4.9375,4.4375 4.9375,12.0625 0,7.609375 -4.9375,12.046875 -4.921875,4.453125 -13.375,4.453125 -3.953125,0 -7.890625,-0.875 -3.921875,-0.875 -8.015625,-2.734375 z"
                 id="DejaVuSans-53"
                 inkscape:connector-curvature="0"
                 style="stroke-linecap:butt;stroke-linejoin:round" />
            </defs>
            <g
               transform="matrix(0.1,0,0,-0.1,10.8275,262.08077)"
               id="g215"
               style="stroke-linecap:butt;stroke-linejoin:round">
              <use
                 xlink:href="#DejaVuSans-53"
                 id="use217"
                 style="stroke-linecap:butt;stroke-linejoin:round"
                 x="0"
                 y="0"
                 width="100%"
                 height="100%" />
            </g>
          </g>
        </g>
        <g
           id="ytick_7" />
        <text
           xml:space="preserve"
           style="font-style:normal;font-weight:normal;font-size:22px;line-height:125%;font-family:sans-serif;letter-spacing:0px;word-spacing:0px;fill:#000000;fill-opacity:1;stroke:none;stroke-width:1px;stroke-linecap:butt;stroke-linejoin:miter;stroke-opacity:1"
           x="202.9399"
           y="358.68066"
           id="text3659"
           sodipodi:linespacing="125%"><tspan
             sodipodi:role="line"
             id="tspan3661"
             style="font-size:12px;stroke-linecap:butt;stroke-linejoin:round"
             x="202.9399"
             y="358.68066">Samples</tspan></text>
        <text
           xml:space="preserve"
           style="font-style:normal;font-weight:normal;font-size:22px;line-height:125%;font-family:sans-serif;letter-spacing:0px;word-spacing:0px;fill:#000000;fill-opacity:1;stroke:none;stroke-width:1px;stroke-linecap:butt;stroke-linejoin:miter;stroke-opacity:1"
           x="-211.18448"
           y="-0.16543838"
           id="text3663"
           sodipodi:linespacing="125%"
           transform="matrix(0,-1,1,0,0,0)"><tspan
             sodipodi:role="line"
             id="tspan3665"
             style="font-size:12px;stroke-linecap:butt;stroke-linejoin:round"
             x="-211.18448"
             y="-0.16543838">Frame</tspan></text>
      </g>
      <g
         id="line2d_15">
        <path
           clip-path="url(#pb8e76abd32)"
           d="M 24.19 36.496727  L 24.878608 41.120738  L 25.567217 48.209138  L 25.911521 49.422376  L 26.255825 48.992201  L 26.600129 45.922651  L 27.288738 35.341818  L 27.977346 18.3142  L 28.32165 14.162652  L 28.665954 17.51218  L 29.698867 42.013167  L 30.043171 44.212161  L 30.387475 40.327467  L 31.076083 28.60339  L 31.420388 25.180951  L 31.764692 23.722732  L 32.4533 16.507467  L 32.797604 18.610218  L 33.141908 29.498736  L 33.830517 66.439786  L 34.174821 62.070963  L 34.519125 41.750688  L 34.863429 30.24826  L 35.207733 28.928573  L 35.896342 16.377686  L 36.240646 19.151217  L 36.929254 36.069469  L 37.273558 41.650071  L 37.617863 38.714677  L 37.962167 28.254876  L 38.306471 22.335967  L 38.650775 25.772988  L 39.339383 38.988822  L 39.683688 40.813053  L 40.027992 35.725329  L 40.372296 28.56256  L 40.7166 24.848477  L 41.060904 24.008543  L 41.405208 25.902769  L 42.438121 37.478108  L 42.782425 43.216198  L 43.126729 43.736782  L 43.471033 38.326791  L 43.815337 35.655335  L 44.159642 37.670593  L 45.192554 47.792087  L 45.536858 44.7692  L 46.225467 31.77939  L 46.914075 14.792602  L 47.258379 12.768595  L 47.602683 18.070678  L 48.291292 36.111757  L 48.635596 40.741601  L 48.9799 38.58927  L 49.668508 31.168396  L 50.012813 27.900529  L 51.045725 12.1751  L 51.390029 15.607746  L 51.734333 29.646016  L 52.078637 53.51997  L 52.422942 69.079161  L 52.767246 60.185486  L 53.11155 40.79118  L 53.455854 34.10379  L 53.800158 33.817979  L 54.488767 21.041069  L 54.833071 23.294016  L 55.865983 41.507165  L 56.210288 37.74642  L 56.554592 30.687184  L 56.898896 29.02919  L 57.2432 32.021454  L 57.931808 40.937002  L 58.276112 38.42595  L 58.620417 29.756841  L 58.964721 25.331147  L 59.309025 26.31982  L 59.653329 26.432102  L 59.997633 27.05622  L 61.37485 41.845472  L 61.719154 40.869924  L 62.063458 37.472275  L 62.407763 37.87766  L 63.440675 48.780759  L 63.784979 48.254343  L 64.473588 32.461836  L 65.162196 18.515434  L 65.5065 16.118123  L 65.850804 20.052396  L 66.539412 33.354266  L 66.883717 35.248492  L 67.228021 33.25219  L 67.572325 32.015621  L 68.260933 34.827066  L 68.605238 31.671482  L 68.949542 24.759526  L 69.293846 20.371746  L 69.63815 21.663728  L 69.982454 33.781524  L 70.326758 55.648969  L 70.671063 66.019819  L 71.359671 31.570865  L 71.703975 28.682134  L 72.048279 28.976694  L 72.392583 22.296595  L 72.736888 19.078307  L 73.081192 23.240062  L 73.7698 35.360774  L 74.114104 37.052308  L 74.802712 25.847357  L 75.147017 29.231882  L 75.835625 42.778732  L 76.179929 46.202629  L 76.524233 39.655228  L 76.868538 27.868448  L 77.212842 22.839052  L 77.90145 23.224022  L 78.245754 25.23928  L 78.934363 34.669579  L 79.278667 39.935206  L 79.622971 41.928591  L 79.967275 39.185682  L 80.311579 37.978277  L 80.655883 40.444124  L 81.000188 44.088212  L 81.688796 54.154295  L 82.0331 51.265564  L 83.066012 22.771974  L 83.410317 17.131585  L 83.754621 15.448801  L 84.098925 18.966024  L 84.443229 24.759526  L 84.787533 28.011353  L 85.476142 26.337318  L 85.820446 27.525766  L 86.16475 27.737208  L 87.197663 25.479886  L 87.541967 25.8284  L 87.886271 30.364918  L 88.574879 65.831709  L 88.919183 65.149262  L 89.607792 27.043096  L 89.952096 27.896154  L 90.2964 27.881572  L 90.640704 24.177697  L 90.985008 25.567379  L 91.673617 33.31781  L 92.017921 35.139125  L 92.362225 32.574119  L 92.706529 26.927897  L 93.050833 27.866989  L 94.083746 48.930956  L 94.42805 47.313792  L 95.116658 30.930707  L 96.149571 22.986332  L 96.493875 23.75773  L 97.526787 37.384782  L 97.871092 37.034809  L 98.215396 36.037388  L 98.5597 39.330045  L 99.248308 50.991419  L 99.592613 53.9866  L 99.936917 50.93309  L 100.625525 33.115118  L 101.314133 22.573656  L 101.658438 18.563555  L 102.002742 18.244206  L 102.69135 25.119706  L 103.379958 26.789366  L 103.724263 29.586229  L 104.068567 31.442541  L 104.412871 31.592738  L 104.757175 30.466993  L 105.445783 24.674949  L 105.790087 26.876859  L 106.478696 65.42924  L 106.823 64.182463  L 107.167304 41.615074  L 107.511608 28.724422  L 107.855913 31.617528  L 108.200217 30.681351  L 108.544521 25.780279  L 108.888825 26.216286  L 109.577433 31.422126  L 109.921738 33.160323  L 110.266042 29.13564  L 110.610346 22.550325  L 110.95465 23.737315  L 111.643258 39.003404  L 111.987563 43.351812  L 112.331867 40.423709  L 112.676171 31.064863  L 113.020475 25.6155  L 113.709083 30.965704  L 114.053387 31.534409  L 114.397692 33.163239  L 115.0863 38.255338  L 115.430604 37.870368  L 116.119213 30.296382  L 116.463517 34.342938  L 117.152125 47.853332  L 117.496429 52.907518  L 117.840733 52.475885  L 119.562254 19.136635  L 119.906558 18.162545  L 120.250863 18.264621  L 120.595167 18.58397  L 120.939471 20.47528  L 121.628079 29.094809  L 121.972383 30.824257  L 122.316688 30.194306  L 122.660992 27.96469  L 123.005296 26.502097  L 123.3496 26.69604  L 123.693904 32.980962  L 124.382513 64.211628  L 124.726817 54.186375  L 125.071121 33.101994  L 125.415425 26.725204  L 125.759729 29.648933  L 126.104033 28.149884  L 126.448338 27.448481  L 127.136946 32.782644  L 127.48125 34.363353  L 127.825554 33.336767  L 128.169858 26.535636  L 128.514162 22.254306  L 128.858467 27.177252  L 129.547075 49.334882  L 129.891379 52.411724  L 130.235683 42.24794  L 130.579988 28.205296  L 130.924292 23.674611  L 131.268596 25.348646  L 131.6129 25.743823  L 131.957204 26.946854  L 132.301508 29.895371  L 132.645813 34.058585  L 132.990117 39.739805  L 133.334421 42.625619  L 133.678725 40.441208  L 134.023029 40.681814  L 134.711638 50.866012  L 135.055942 51.326809  L 135.400246 47.723551  L 136.088854 32.349553  L 136.433158 29.170637  L 136.777463 27.626383  L 137.810375 21.504782  L 138.154679 17.551552  L 138.498983 15.701072  L 138.843288 18.980606  L 139.187592 23.737315  L 139.531896 26.44231  L 140.220504 28.935864  L 140.564808 30.634688  L 140.909113 31.438167  L 141.253417 39.305256  L 141.597721 59.367426  L 141.942025 70.328854  L 142.630633 34.237946  L 142.974938 31.363797  L 143.319242 32.110405  L 143.663546 27.716793  L 144.00785 27.814494  L 144.352154 30.351794  L 144.696458 30.185557  L 145.040762 30.238053  L 145.385067 27.029972  L 145.729371 19.22267  L 146.073675 18.292327  L 147.106588 43.999261  L 147.450892 47.347331  L 147.795196 40.680356  L 148.1395 31.506703  L 148.483804 30.010571  L 148.828108 32.890552  L 149.172413 34.105248  L 149.516717 32.873054  L 150.205325 25.016172  L 150.549629 24.233109  L 151.238238 28.467776  L 151.582542 35.52847  L 151.926846 46.912782  L 152.27115 54.044928  L 152.615454 54.208249  L 152.959758 50.677902  L 153.992671 34.673954  L 155.025583 23.237146  L 155.714192 15.679199  L 156.058496 15.281105  L 156.747104 21.539779  L 157.091408 22.602821  L 157.780017 22.286387  L 158.124321 23.775228  L 158.468625 28.604848  L 159.157233 61.471635  L 159.501538 64.042474  L 160.190146 35.936771  L 160.53445 38.831334  L 160.878754 39.726681  L 161.223058 35.232451  L 161.911667 30.488866  L 162.255971 29.055438  L 162.600275 29.068562  L 162.944579 25.331147  L 163.288883 19.43557  L 163.633188 20.381954  L 164.6661 38.879456  L 165.010404 38.064312  L 165.354708 31.598571  L 165.699013 29.256672  L 166.387621 40.076653  L 166.731925 43.159327  L 167.076229 44.360899  L 167.420533 42.090453  L 168.453446 28.527562  L 168.79775 26.961436  L 169.142054 32.808892  L 169.486358 42.393762  L 169.830663 47.019231  L 170.174967 45.228539  L 170.519271 41.15136  L 170.863575 38.444907  L 171.207879 38.790504  L 171.552183 39.557527  L 171.896488 36.464646  L 172.9294 21.054193  L 173.273704 17.137418  L 173.618008 19.244543  L 173.962312 22.655317  L 174.306617 21.937873  L 174.995225 16.743699  L 175.339529 18.037138  L 175.683833 23.228396  L 176.028138 33.691114  L 176.716746 64.647635  L 177.06105 56.609935  L 177.405354 39.593983  L 177.749658 36.753373  L 178.093963 40.836385  L 178.782571 35.06184  L 179.126875 35.589715  L 179.471179 34.092124  L 180.159788 27.918027  L 180.504092 23.205065  L 180.848396 22.95571  L 181.537004 33.546751  L 181.881308 35.745744  L 182.225613 36.728583  L 182.569917 32.014163  L 182.914221 25.144496  L 183.258525 25.93485  L 183.947133 36.206541  L 184.291438 38.770089  L 184.635742 38.345748  L 184.980046 34.631665  L 185.32435 32.473502  L 185.668654 34.671037  L 186.357263 43.217656  L 186.701567 48.532862  L 187.045871 49.123441  L 188.078783 31.777932  L 188.423088 29.309168  L 188.767392 30.666769  L 189.111696 33.914222  L 189.456 34.151911  L 189.800304 30.414497  L 190.488912 19.453069  L 190.833217 19.278082  L 191.521825 26.926439  L 191.866129 25.943599  L 192.210433 22.999456  L 192.554738 21.376459  L 192.899042 22.894464  L 193.243346 27.317241  L 193.58765 37.991401  L 193.931954 52.343187  L 194.276258 53.525802  L 194.620563 37.679342  L 194.964867 27.642424  L 195.653475 40.261847  L 195.997779 40.043114  L 196.342083 39.650853  L 196.686387 37.931614  L 198.063604 20.392161  L 198.407908 23.464628  L 198.752213 30.784885  L 199.440821 38.90862  L 199.785125 38.939243  L 200.473733 25.514883  L 200.818038 28.902325  L 201.162342 34.739573  L 201.506646 38.001608  L 201.85095 39.140477  L 202.195254 36.667338  L 202.539558 32.276642  L 202.883863 32.034578  L 203.572471 40.782431  L 203.916775 46.287206  L 204.261079 48.789509  L 204.949688 42.863309  L 205.293992 41.746313  L 205.638296 39.959996  L 206.326904 35.086629  L 206.671208 31.196102  L 207.704121 15.918347  L 208.048425 16.123956  L 208.737033 27.13788  L 209.081338 27.223915  L 209.769946 21.076066  L 210.11425 21.34292  L 210.458554 25.552797  L 210.802858 38.612602  L 211.147163 57.404664  L 211.491467 61.702034  L 212.180075 30.859254  L 212.524379 34.988929  L 212.868683 41.582993  L 213.212987 41.409465  L 213.557292 40.235599  L 213.901596 37.795999  L 214.934508 23.25027  L 215.278813 19.699508  L 215.623117 23.670237  L 215.967421 30.303673  L 216.656029 33.924429  L 217.000333 34.421682  L 217.344638 29.196885  L 217.688942 25.784653  L 218.37755 38.460947  L 218.721854 40.387254  L 219.066158 39.764594  L 219.410463 35.531386  L 219.754767 29.800587  L 220.099071 29.046688  L 220.443375 33.316352  L 221.131983 47.007566  L 221.476288 50.361468  L 221.820592 47.186927  L 222.5092 38.743841  L 222.853504 35.719496  L 223.197808 35.674291  L 223.542113 38.393869  L 223.886417 37.884951  L 224.230721 31.454207  L 224.919329 15.101745  L 225.263633 13.354799  L 225.952242 19.778251  L 226.296546 19.495357  L 226.64085 17.870902  L 226.985154 17.757161  L 227.329458 21.557278  L 227.673763 29.247922  L 228.362371 59.29889  L 228.706675 63.224414  L 229.395283 33.061164  L 229.739587 34.829983  L 230.083892 38.160554  L 230.428196 35.850736  L 230.7725 35.741369  L 231.116804 36.041762  L 232.149717 23.712525  L 232.494021 21.525197  L 232.838325 25.211574  L 233.182629 30.192848  L 233.526933 31.417752  L 233.871238 33.056789  L 234.215542 33.131158  L 234.559846 26.707706  L 234.90415 22.634901  L 235.937063 38.465322  L 236.281367 40.062071  L 236.625671 36.366945  L 236.969975 31.096943  L 237.314279 32.814725  L 238.002888 45.938692  L 238.347192 50.565619  L 238.691496 49.553615  L 239.380104 37.3702  L 239.724408 36.353821  L 240.068713 36.024264  L 240.413017 36.606093  L 240.757321 38.895496  L 241.101625 39.558986  L 241.445929 36.066552  L 242.134538 23.868554  L 242.478842 21.189807  L 242.823146 21.673935  L 243.16745 21.240845  L 243.511754 17.948187  L 243.856058 13.341675  L 244.200363 10.8  L 244.544667 13.210435  L 244.888971 21.290424  L 245.577579 53.508304  L 245.921883 55.806456  L 246.266188 41.852763  L 246.610492 34.417307  L 247.2991 49.034489  L 247.643404 49.563823  L 247.987708 47.841667  L 248.332013 42.476881  L 249.020621 29.024815  L 249.364925 22.885715  L 249.709229 19.727214  L 250.397838 28.189256  L 250.742142 27.429524  L 251.086446 28.62818  L 251.43075 29.163346  L 251.775054 25.968389  L 252.119358 27.483478  L 252.463663 35.197454  L 252.807967 39.550236  L 253.152271 40.073737  L 253.496575 39.144851  L 253.840879 34.551463  L 254.185183 31.56649  L 254.529488 34.042545  L 255.5624 45.071052  L 255.906704 42.899764  L 256.251008 37.059599  L 256.595313 33.953594  L 256.939617 33.535085  L 257.283921 34.708951  L 257.972529 41.386133  L 258.316833 39.226512  L 259.005442 27.384319  L 259.349746 25.796319  L 259.69405 28.151342  L 260.038354 28.88191  L 260.382658 24.96076  L 261.071267 14.626365  L 261.415571 11.583063  L 261.759875 12.832757  L 262.104179 20.346957  L 262.792788 51.261189  L 263.137092 48.311213  L 263.481396 31.945627  L 263.8257 28.655886  L 264.170004 39.71939  L 264.514308 47.073186  L 264.858613 49.862758  L 265.202917 51.119742  L 265.547221 46.578849  L 266.580133 26.33586  L 266.924438 22.860925  L 267.268742 26.757285  L 267.613046 27.614718  L 267.95735 24.415386  L 268.301654 24.473715  L 268.645958 22.067654  L 268.990263 15.499838  L 269.334567 17.935063  L 270.023175 39.805424  L 270.367479 44.309861  L 270.711783 42.856018  L 271.056088 35.729704  L 271.400392 32.122071  L 271.744696 36.444231  L 272.089 43.047044  L 272.433304 46.815081  L 272.777608 46.10347  L 273.466217 36.496727  L 273.810521 37.018769  L 274.154825 38.097851  L 274.499129 37.075639  L 274.843433 36.808785  L 275.187738 36.926901  L 275.532042 33.635702  L 276.22065 24.591831  L 276.564954 24.043541  L 277.253563 31.597112  L 277.597867 31.700646  L 278.630779 16.83265  L 278.975083 18.734167  L 279.319388 28.667551  L 279.663692 43.152036  L 280.007996 46.940488  L 280.696604 23.702317  L 281.040908 28.908158  L 281.385213 38.367621  L 281.729517 43.283276  L 282.073821 46.284289  L 282.418125 45.779746  L 283.106733 38.110975  L 283.795342 31.750225  L 284.139646 33.734861  L 284.48395 36.775246  L 285.172558 29.17647  L 285.516863 26.93373  L 285.861167 20.386329  L 286.205471 16.332481  L 287.582688 36.097175  L 287.926992 34.284609  L 288.271296 31.653983  L 288.6156 36.821909  L 289.304208 52.171117  L 289.648513 56.684304  L 289.992817 55.115261  L 290.681425 37.378949  L 291.025729 34.293358  L 292.058642 30.173891  L 292.74725 23.321722  L 293.091554 22.977583  L 294.124467 30.27305  L 294.468771 30.612815  L 295.157379 23.469002  L 295.501683 23.715441  L 295.845988 23.721274  L 296.190292 25.576128  L 296.8789 46.664884  L 297.223204 39.892918  L 297.567508 26.919147  L 297.911812 27.159754  L 298.600421 42.918721  L 298.944725 47.742508  L 299.289029 45.524557  L 299.633333 37.014394  L 299.977638 32.889094  L 300.666246 35.002053  L 301.01055 37.53352  L 301.354854 38.42595  L 302.043463 25.723408  L 302.387767 26.210453  L 302.732071 24.110619  L 303.076375 20.558398  L 303.420679 24.300187  L 303.764983 30.030986  L 304.109287 32.649946  L 304.453592 34.281693  L 304.797896 30.996326  L 305.1422 25.866314  L 305.486504 29.046688  L 305.830808 37.529145  L 306.175113 43.144745  L 306.519417 45.963481  L 306.863721 46.253667  L 307.552329 38.778839  L 307.896633 39.356293  L 308.585242 41.638405  L 308.929546 42.228984  L 309.27385 38.653432  L 309.962458 24.619537  L 310.995371 19.20663  L 311.339675 19.276624  L 311.683979 19.560977  L 312.028283 20.371746  L 313.061196 31.436708  L 313.749804 47.937909  L 314.094108 42.931845  L 314.438413 31.069237  L 314.782717 29.592062  L 315.471325 43.690119  L 315.815629 47.122765  L 316.159933 45.502684  L 316.848542 29.727676  L 317.192846 27.878655  L 317.53715 28.957737  L 317.881454 33.559875  L 318.225758 40.295386  L 318.570063 39.295048  L 318.914367 33.243441  L 319.602975 28.208213  L 319.947279 23.543372  L 320.291583 23.97063  L 320.635888 27.950108  L 321.324496 31.241307  L 321.6688 30.335753  L 322.013104 26.748536  L 322.357408 28.81629  L 323.046017 43.268693  L 323.390321 47.453781  L 323.734625 48.96012  L 324.078929 45.492477  L 324.423233 40.830552  L 324.767538 41.679235  L 325.111842 44.936895  L 325.456146 43.240987  L 326.489058 24.125201  L 326.833363 22.957168  L 327.521971 30.201597  L 327.866275 28.680675  L 328.899188 15.717113  L 329.243492 17.814031  L 329.587796 22.096819  L 329.9321 28.184881  L 330.276404 37.444569  L 330.620708 40.435375  L 330.965013 32.604741  L 331.309317 27.783871  L 332.342229 45.569762  L 332.686533 47.582104  L 333.030838 44.353608  L 333.375142 36.891904  L 333.719446 32.456003  L 334.06375 31.439625  L 334.408054 33.230317  L 334.752358 39.723764  L 335.096663 42.398137  L 335.785271 29.691221  L 336.129575 27.273495  L 336.473879 23.747522  L 336.818183 22.898839  L 337.506792 31.242765  L 337.851096 32.775353  L 338.1954 33.147199  L 338.884008 28.606306  L 339.228313 32.566828  L 339.572617 37.928697  L 339.916921 40.425167  L 340.261225 41.795893  L 340.605529 41.193648  L 340.949833 37.409571  L 341.294138 35.723871  L 341.982746 42.956635  L 342.32705 43.997803  L 342.671354 41.826515  L 343.359962 29.368955  L 343.704267 27.398901  L 344.048571 27.288077  L 345.770092 17.35615  L 346.114396 18.894571  L 346.4587 26.265866  L 346.803004 37.526229  L 347.147308 41.120738  L 347.835917 25.510508  L 348.180221 29.529359  L 348.524525 35.963019  L 349.557437 46.104928  L 349.901742 44.388605  L 350.59035 37.998692  L 350.934654 34.885395  L 351.623263 38.045355  L 351.967567 34.477094  L 352.311871 32.362677  L 352.656175 32.263518  L 353.344783 24.532044  L 353.689088 26.668334  L 354.033392 31.266097  L 354.377696 34.208782  L 354.722 34.141704  L 355.410608 26.649377  L 355.754913 29.105017  L 356.443521 37.772668  L 356.787825 40.883048  L 357.132129 42.415636  L 357.820738 35.023926  L 358.165042 36.053428  L 358.509346 39.373792  L 358.85365 40.031448  L 359.886563 35.594089  L 360.230867 34.687077  L 360.575171 31.888756  L 360.919475 28.060933  L 361.263779 27.770747  L 361.608083 29.621226  L 361.952388 27.344947  L 362.296692 21.544154  L 362.640996 19.498273  L 363.329604 28.530479  L 363.673908 29.853083  L 364.018213 28.314663  L 364.362517 29.342707  L 365.051125 38.297627  L 365.739733 40.636609  L 366.084038 40.971999  L 366.772646 36.426732  L 367.11695 35.805531  L 367.461254 37.606431  L 367.805558 40.082486  L 368.149863 40.320176  L 369.871383 27.877197  L 370.215688 27.019765  L 370.904296 29.858916  L 371.2486 29.328124  L 371.592904 28.128011  L 371.937208 28.129469  L 372.281513 30.284716  L 372.970121 37.571434  L 373.658729 43.238071  L 374.003033 42.676657  L 374.347338 39.155059  L 374.691642 37.406655  L 375.035946 37.863077  L 375.38025 37.384782  L 375.724554 36.276536  L 376.068858 36.167169  L 376.413162 35.171206  L 377.101771 30.71489  L 377.790379 23.606075  L 378.134683 22.302428  L 378.478988 22.429293  L 378.823292 22.194519  L 379.167596 25.458013  L 379.5119 32.899302  L 379.856204 36.410692  L 380.544813 25.437597  L 380.889117 25.264069  L 381.577725 33.896723  L 381.922029 34.98747  L 382.266333 34.668121  L 382.610637 36.149671  L 382.954942 39.306714  L 383.299246 41.370093  L 383.64355 41.378842  L 383.987854 42.138574  L 384.332158 43.535547  L 384.676463 42.096286  L 385.365071 36.504018  L 385.709375 34.555838  L 386.397983 28.307371  L 386.742288 27.277869  L 387.086592 28.167383  L 387.430896 29.726218  L 387.7752 30.531155  L 388.119504 30.325546  L 388.463808 30.474284  L 389.152417 33.128242  L 389.496721 33.995882  L 390.185329 39.022361  L 390.529633 38.730717  L 390.873938 37.814956  L 391.218242 38.415742  L 391.562546 38.668014  L 391.90685 38.23784  L 392.251154 38.93341  L 392.595458 39.264425  L 392.939763 37.822247  L 393.972675 31.423584  L 394.661283 26.047133  L 395.005588 22.75885  L 395.349892 21.281675  L 395.694196 23.77377  L 396.0385 27.43244  L 396.382804 28.580058  L 397.071413 25.479886  L 397.415717 26.971643  L 398.104325 34.576253  L 398.448629 38.740925  L 398.792933 40.980749  L 399.481542 40.797013  L 399.825846 40.505369  L 400.17015 39.338795  L 400.858758 38.334082  L 401.203063 36.327573  L 401.547367 35.490556  L 401.891671 36.671713  L 402.235975 36.345072  L 402.924583 32.097281  L 403.268888 30.844672  L 403.613192 30.331379  L 403.957496 31.513994  L 404.3018 32.227063  L 404.646104 31.044448  L 404.990408 30.494699  L 405.334713 31.7546  L 405.679017 32.520165  L 406.023321 32.371426  L 406.711929 33.78444  L 407.056233 33.3426  L 407.400538 33.1297  L 407.744842 34.214615  L 408.777754 39.900209  L 409.122058 38.837167  L 409.466363 36.941483  L 409.810667 36.555055  L 410.154971 36.365487  L 411.187883 30.905917  L 411.876492 25.74674  L 412.220796 25.504675  L 412.5651 26.869568  L 412.909404 27.062053  L 413.253708 26.792282  L 413.598013 27.428066  L 413.942317 27.69492  L 414.286621 27.732833  L 414.630925 28.823581  L 414.975229 30.332837  L 415.319533 32.87597  L 415.663837 36.687753  L 416.008142 38.595103  L 416.352446 38.29471  L 416.69675 39.570651  L 417.041054 42.476881  L 417.385358 43.16516  L 418.073967 38.996113  L 418.762575 34.722075  L 419.451183 33.519044  L 420.139792 31.037157  L 420.484096 30.475742  L 421.172704 28.502773  L 421.517008 28.292789  L 421.861312 28.97961  L 422.205617 30.625939  L 422.894225 37.093138  L 423.238529 37.77121  L 423.927138 32.962005  L 424.615746 35.190163  L 425.304354 34.138787  L 425.992963 34.625832  L 426.337267 35.127459  L 426.681571 34.901436  L 427.370179 32.391842  L 427.714483 31.52566  L 428.058788 30.335753  L 428.403092 30.987577  L 428.747396 33.167614  L 429.0917 33.348433  L 429.436004 31.82022  L 430.124613 30.362001  L 430.813221 25.806527  L 431.157525 25.659247  L 431.501829 26.806865  L 432.190438 31.266097  L 432.879046 33.48988  L 433.911958 41.319055  L 434.256263 42.488547  L 434.600567 41.237395  L 435.289175 36.773788  L 435.977783 33.074288  L 436.322088 32.59745  L 436.666392 32.795768  L 437.010696 32.371426  L 437.355 32.251853  L 437.699304 32.530372  L 437.699304 32.530372  "
           style="fill:none;stroke:#1f77b4;stroke-linecap:square;stroke-width:1.5;"
           id="path231" />
      </g>
      <g
         id="line2d_16">
        <path
           clip-path="url(#pb8e76abd32)"
           d="M 24.19 280.771659  L 244.200363 280.771659  L 244.544667 279.158053  L 244.888971 279.804032  L 245.577579 282.388181  L 245.921883 282.578209  L 246.266188 281.456802  L 246.610492 280.8559  L 247.2991 282.058787  L 247.643404 282.11186  L 247.987708 281.978774  L 248.332013 281.537584  L 249.364925 279.860724  L 249.709229 279.572874  L 250.397838 280.304379  L 250.742142 280.228806  L 251.43075 280.375923  L 251.775054 280.065654  L 252.119358 280.201251  L 252.463663 280.950215  L 252.807967 281.387919  L 253.152271 281.451441  L 253.496575 281.367157  L 254.185183 280.57757  L 254.529488 280.843778  L 255.5624 282.117834  L 255.906704 281.888757  L 256.251008 281.211736  L 256.595313 280.841543  L 256.939617 280.790878  L 257.283921 280.940091  L 257.972529 281.827475  L 258.316833 281.55809  L 259.005442 279.932259  L 259.349746 279.688546  L 259.69405 280.009795  L 260.038354 280.102997  L 260.382658 279.494892  L 261.071267 277.811902  L 261.415571 277.26237  L 261.759875 277.397115  L 262.104179 278.588278  L 262.792788 283.887722  L 263.137092 283.425262  L 263.481396 280.511599  L 263.8257 279.89851  L 264.514308 283.40206  L 264.858613 283.999366  L 265.202917 284.31255  L 265.547221 283.456703  L 266.580133 279.25543  L 266.924438 278.465121  L 267.268742 279.292429  L 267.613046 279.460135  L 267.95735 278.694978  L 268.301654 278.6709  L 268.645958 278.055142  L 268.990263 276.400941  L 269.334567 276.928918  L 270.023175 282.426963  L 270.367479 283.636512  L 270.711783 283.298332  L 271.056088 281.408813  L 271.400392 280.424539  L 271.744696 281.630981  L 272.089 283.528293  L 272.433304 284.666354  L 272.777608 284.520693  L 273.466217 281.719951  L 273.810521 281.89655  L 274.154825 282.253346  L 274.499129 281.950545  L 274.843433 281.882472  L 275.187738 281.938511  L 275.532042 280.856909  L 276.22065 277.746209  L 276.564954 277.509536  L 277.253563 280.130119  L 277.597867 280.158598  L 277.942171 278.278783  L 278.286475 275.781188  L 278.630779 274.471011  L 278.975083 275.117126  L 279.319388 278.926946  L 279.663692 284.648772  L 280.007996 286.224971  L 280.696604 276.774609  L 281.040908 278.900242  L 281.385213 282.88572  L 281.729517 285.023775  L 282.073821 286.38332  L 282.418125 286.232274  L 283.106733 282.907331  L 283.795342 280.01749  L 284.139646 280.937557  L 284.48395 282.379988  L 285.172558 278.732761  L 285.516863 277.608838  L 285.861167 274.323534  L 286.205471 272.215846  L 286.549775 274.785375  L 286.894079 278.258925  L 287.582688 282.196409  L 287.926992 281.250923  L 288.271296 279.846657  L 288.6156 282.634879  L 289.304208 291.157688  L 289.648513 293.783969  L 289.992817 293.030654  L 290.681425 283.072022  L 291.025729 281.301979  L 292.058642 278.854671  L 292.74725 274.645599  L 293.091554 274.377891  L 294.124467 278.809914  L 294.468771 279.009084  L 295.157379 274.350328  L 295.501683 274.456925  L 295.845988 274.407871  L 296.190292 275.58733  L 296.8789 289.740428  L 297.223204 285.203566  L 297.567508 276.339757  L 297.911812 276.471491  L 298.600421 287.4665  L 298.944725 290.92816  L 299.289029 289.423508  L 299.633333 283.379572  L 299.977638 280.416427  L 300.666246 281.960561  L 301.01055 283.837872  L 301.354854 284.522436  L 302.043463 275.002155  L 302.387767 275.33333  L 302.732071 273.694666  L 303.076375 270.919591  L 303.420679 273.750226  L 303.764983 278.165341  L 304.109287 280.199672  L 304.453592 281.481537  L 304.797896 278.882268  L 305.1422 274.781515  L 305.486504 277.296596  L 305.830808 284.117435  L 306.175113 288.691106  L 306.519417 291.034532  L 306.863721 291.329238  L 307.552329 285.24693  L 307.896633 285.75181  L 308.585242 287.724906  L 308.929546 288.259728  L 309.27385 285.256027  L 309.962458 273.24856  L 310.995371 268.430152  L 311.339675 268.436005  L 311.683979 268.631426  L 312.028283 269.294182  L 313.061196 279.035086  L 313.749804 293.88092  L 314.094108 289.406139  L 314.438413 278.674318  L 314.782717 277.321086  L 315.471325 290.229637  L 315.815629 293.422777  L 316.159933 291.969488  L 316.848542 277.375  L 317.192846 275.639299  L 317.53715 276.633028  L 317.881454 280.940009  L 318.225758 287.28132  L 318.570063 286.355761  L 318.914367 280.641879  L 319.602975 275.847834  L 319.947279 271.382642  L 320.291583 271.767639  L 320.635888 275.562662  L 321.324496 278.709984  L 321.6688 277.830648  L 322.013104 274.351709  L 322.357408 276.344048  L 323.046017 290.402275  L 323.390321 294.504293  L 323.734625 296.001867  L 324.078929 292.632719  L 324.423233 288.079623  L 324.767538 288.92522  L 325.111842 292.143364  L 325.456146 290.488798  L 326.489058 271.614529  L 326.833363 270.446653  L 327.521971 277.615923  L 327.866275 276.101538  L 328.899188 263.175882  L 329.243492 265.253973  L 329.587796 269.516287  L 329.9321 275.586182  L 330.276404 284.829747  L 330.620708 287.819102  L 330.965013 279.996433  L 331.309317 275.1774  L 332.342229 292.960802  L 332.686533 294.973126  L 333.030838 291.743895  L 333.375142 284.282286  L 333.719446 279.847543  L 334.06375 278.832137  L 334.408054 280.621621  L 334.752358 287.105595  L 335.096663 289.771657  L 335.785271 277.093931  L 336.129575 274.68802  L 336.473879 271.182894  L 336.818183 270.346823  L 337.506792 278.649499  L 337.851096 280.171539  L 338.1954 280.540546  L 338.884008 276.054026  L 339.228313 279.968681  L 339.572617 285.253729  L 339.916921 287.703735  L 340.261225 289.039837  L 340.605529 288.435795  L 340.949833 284.717254  L 341.294138 283.062463  L 341.982746 290.098344  L 342.32705 291.092123  L 342.671354 288.964863  L 343.359962 276.896792  L 343.704267 275.006839  L 344.048571 274.913633  L 345.770092 265.557926  L 346.114396 267.056323  L 346.4587 274.054492  L 346.803004 284.674435  L 347.147308 288.036689  L 347.835917 273.430195  L 348.180221 277.19059  L 348.524525 283.165222  L 349.557437 292.444971  L 349.901742 290.834513  L 350.59035 284.962372  L 350.934654 282.132084  L 351.623263 284.955939  L 351.967567 281.751331  L 352.311871 279.866049  L 352.656175 279.781956  L 353.344783 272.998425  L 353.689088 274.901  L 354.033392 278.930591  L 354.377696 281.489573  L 354.722 281.428384  L 355.410608 275.01921  L 355.754913 277.135551  L 356.443521 284.469907  L 356.787825 287.056707  L 357.132129 288.301433  L 357.820738 282.126799  L 358.165042 282.96378  L 358.509346 285.659874  L 358.85365 286.166014  L 359.886563 282.53627  L 360.230867 281.807069  L 360.575171 279.596571  L 360.919475 276.606766  L 361.263779 276.406616  L 361.608083 277.864761  L 361.952388 276.134139  L 362.296692 271.735329  L 362.640996 270.242292  L 363.329604 277.141614  L 363.673908 278.149368  L 364.018213 277.031483  L 364.362517 277.811166  L 365.051125 284.326091  L 365.739733 285.94116  L 366.084038 286.140198  L 366.772646 282.893627  L 367.11695 282.447979  L 367.461254 283.67025  L 367.805558 285.332573  L 368.149863 285.456881  L 369.871383 277.206247  L 370.215688 276.685771  L 370.904296 278.54847  L 371.2486 278.235873  L 371.592904 277.514122  L 371.937208 277.544303  L 372.281513 278.886239  L 372.970121 283.277082  L 373.658729 286.553933  L 374.003033 286.172276  L 374.347338 284.093847  L 374.691642 283.065247  L 375.035946 283.299948  L 375.38025 283.007552  L 375.724554 282.372362  L 376.068858 282.296155  L 376.413162 281.741165  L 377.101771 279.358605  L 377.790379 275.700708  L 378.134683 275.086953  L 378.478988 275.213865  L 378.823292 275.157798  L 379.167596 276.840264  L 379.5119 280.535574  L 379.856204 282.24125  L 380.544813 277.008529  L 380.889117 276.971704  L 381.577725 281.007582  L 381.922029 281.497156  L 382.266333 281.34584  L 382.610637 281.991194  L 382.954942 283.348876  L 383.299246 284.202279  L 383.64355 284.162192  L 383.987854 284.436392  L 384.332158 284.965641  L 384.676463 284.323937  L 385.365071 282.010993  L 385.709375 281.231696  L 386.397983 278.840045  L 386.742288 278.480368  L 387.086592 278.841813  L 387.430896 279.438039  L 387.7752 279.746663  L 388.119504 279.688555  L 388.463808 279.75629  L 389.152417 280.686104  L 389.496721 280.977234  L 390.185329 282.599704  L 390.529633 282.478577  L 390.873938 282.164491  L 391.562546 282.380694  L 391.90685 282.226282  L 392.595458 282.477411  L 393.284067 281.452655  L 394.316979 279.565871  L 395.005588 278.035111  L 395.349892 277.708297  L 395.694196 278.381556  L 396.0385 279.317724  L 396.382804 279.618943  L 397.071413 278.941559  L 397.415717 279.313858  L 398.792933 282.377211  L 399.825846 282.193837  L 400.17015 281.938466  L 400.858758 281.705054  L 401.203063 281.316299  L 401.547367 281.154085  L 401.891671 281.356597  L 402.235975 281.288292  L 402.924583 280.556692  L 403.613192 280.280763  L 404.3018 280.59322  L 404.990408 280.342719  L 405.679017 280.648791  L 406.023321 280.630398  L 406.711929 280.825997  L 407.400538 280.739228  L 408.089146 281.101096  L 408.777754 281.551518  L 411.187883 280.511535  L 411.876492 279.996353  L 412.220796 279.984985  L 412.909404 280.160488  L 413.598013 280.213085  L 414.630925 280.361476  L 415.319533 280.727359  L 415.663837 281.058724  L 416.008142 281.219406  L 416.352446 281.189358  L 416.69675 281.292876  L 417.041054 281.53096  L 417.385358 281.581963  L 419.106879 280.838851  L 420.484096 280.539278  L 420.8284 280.771659  L 437.699304 280.771659  L 437.699304 280.771659  "
           style="fill:none;stroke:#0000ff;stroke-linecap:square;stroke-width:1.5;"
           id="path234" />
      </g>
      <g
         id="line2d_17">
        <path
           clip-path="url(#pb8e76abd32)"
           d="M 24.19 235.791451  L 189.456 235.853163  L 189.800304 235.554067  L 190.488912 234.672897  L 190.833217 234.655412  L 191.521825 235.267049  L 191.866129 235.183834  L 192.554738 234.79735  L 192.899042 234.91615  L 193.243346 235.280916  L 193.58765 236.183368  L 193.931954 237.419665  L 194.276258 237.540037  L 194.620563 236.168896  L 194.964867 235.281488  L 195.653475 236.419171  L 196.342083 236.379856  L 196.686387 236.224943  L 197.7193 234.995746  L 198.063604 234.472319  L 198.407908 234.767068  L 198.752213 235.518604  L 199.440821 236.39366  L 199.785125 236.408151  L 200.473733 234.885717  L 200.818038 235.265929  L 201.162342 235.954016  L 201.506646 236.354965  L 201.85095 236.507617  L 202.195254 236.208185  L 202.539558 235.648714  L 202.883863 235.613943  L 203.572471 236.807189  L 203.916775 237.598244  L 204.261079 237.992039  L 205.293992 237.060036  L 205.9826 236.44135  L 206.326904 236.066128  L 206.671208 235.432707  L 207.704121 232.748322  L 208.048425 232.724478  L 208.737033 234.637763  L 209.081338 234.631371  L 209.769946 233.381879  L 210.11425 233.388651  L 210.458554 234.198996  L 210.802858 236.876162  L 211.147163 240.866559  L 211.491467 241.887126  L 212.180075 235.228353  L 212.524379 236.157311  L 212.868683 237.691472  L 213.212987 237.685161  L 213.557292 237.437538  L 213.901596 236.870764  L 214.934508 233.181511  L 215.278813 232.205321  L 215.623117 233.202175  L 215.967421 234.956941  L 216.656029 235.94401  L 217.000333 236.088364  L 217.688942 233.553202  L 218.37755 237.337473  L 218.721854 237.957824  L 219.066158 237.796652  L 219.410463 236.477661  L 219.754767 234.6315  L 220.099071 234.365512  L 220.443375 235.770017  L 221.476288 241.724205  L 221.820592 240.68636  L 222.5092 237.748775  L 222.853504 236.657318  L 223.197808 236.65267  L 223.542113 237.700301  L 223.886417 237.530485  L 224.230721 235.03747  L 224.919329 228.440417  L 225.263633 227.629593  L 225.952242 230.099705  L 226.296546 229.905461  L 226.64085 229.131828  L 226.985154 228.997086  L 227.329458 230.584505  L 227.673763 233.94861  L 228.362371 247.636905  L 228.706675 249.597199  L 229.395283 235.640152  L 229.739587 236.486289  L 230.083892 238.109699  L 230.428196 237.003353  L 230.7725 236.962982  L 231.116804 237.127039  L 232.494021 229.573946  L 232.838325 231.461075  L 233.182629 234.083634  L 233.526933 234.728784  L 233.871238 235.614351  L 234.215542 235.653626  L 234.559846 232.065506  L 234.90415 229.730631  L 235.937063 238.745482  L 236.281367 239.710738  L 236.625671 237.560034  L 236.969975 234.426283  L 237.314279 235.450038  L 238.347192 246.44944  L 238.691496 245.911784  L 239.380104 238.332234  L 239.724408 237.701384  L 240.068713 237.504247  L 240.413017 237.898903  L 240.757321 239.424882  L 241.101625 239.895712  L 241.445929 237.590346  L 242.134538 229.318248  L 242.478842 227.429748  L 242.823146 227.699152  L 243.16745 227.335069  L 243.511754 224.959545  L 243.856058 221.620405  L 244.200363 219.70429  L 244.544667 221.31607  L 244.888971 227.051892  L 245.577579 250.549011  L 245.921883 252.348784  L 246.266188 242.089721  L 246.610492 236.567447  L 247.2991 247.664639  L 247.643404 248.146409  L 247.987708 246.902899  L 248.332013 242.825288  L 249.020621 232.381217  L 249.364925 227.524481  L 249.709229 224.971651  L 250.397838 231.628858  L 250.742142 230.992114  L 251.086446 231.936989  L 251.43075 232.35186  L 251.775054 229.712592  L 252.119358 230.928821  L 252.463663 237.297714  L 252.807967 240.933232  L 253.152271 241.39852  L 253.496575 240.645095  L 253.840879 236.782374  L 254.185183 234.248709  L 254.529488 236.357225  L 255.5624 245.924405  L 255.906704 244.080068  L 256.251008 239.009281  L 256.595313 236.294892  L 256.939617 235.927827  L 257.283921 236.9685  L 257.972529 242.943578  L 258.316833 241.035208  L 259.005442 230.370843  L 259.349746 228.909261  L 259.69405 231.028651  L 260.038354 231.679131  L 260.382658 228.067213  L 261.071267 218.467347  L 261.415571 215.588755  L 261.759875 216.684732  L 262.104179 223.633213  L 262.792788 252.574381  L 263.137092 249.847211  L 263.481396 234.436728  L 263.8257 231.318158  L 264.170004 241.80966  L 264.514308 248.826331  L 264.858613 251.522857  L 265.202917 252.765558  L 265.547221 248.451665  L 266.580133 228.986841  L 266.924438 225.608179  L 267.268742 229.366463  L 267.613046 230.186848  L 267.95735 227.059844  L 268.301654 227.100235  L 268.645958 224.732302  L 268.990263 218.281179  L 269.334567 220.64055  L 270.023175 242.113688  L 270.367479 246.561927  L 270.711783 245.142264  L 271.056088 238.112803  L 271.400392 234.546358  L 271.744696 238.826263  L 272.089 245.377469  L 272.433304 249.128057  L 272.777608 248.433962  L 273.466217 238.893357  L 273.810521 239.415777  L 274.154825 240.494  L 274.499129 239.477302  L 274.843433 239.213022  L 275.187738 239.332631  L 275.532042 236.046371  L 276.22065 227.006511  L 276.564954 226.456507  L 277.253563 234.008065  L 277.597867 234.111598  L 278.630779 219.250635  L 278.975083 221.155415  L 279.319388 231.083444  L 279.663692 245.548625  L 280.007996 249.32492  L 280.696604 226.143593  L 281.040908 231.336217  L 281.385213 240.755662  L 281.729517 245.640514  L 282.073821 248.613637  L 282.418125 248.100271  L 283.106733 240.477282  L 283.795342 234.180481  L 284.139646 236.141135  L 284.48395 239.136837  L 285.172558 231.660944  L 285.516863 229.467609  L 285.861167 223.066444  L 286.205471 219.125749  L 287.582688 238.426799  L 287.926992 236.666642  L 288.271296 234.123751  L 288.6156 239.10812  L 289.304208 253.815925  L 289.648513 258.090111  L 289.992817 256.536086  L 290.681425 239.587616  L 291.025729 236.655735  L 292.058642 232.781692  L 292.74725 226.408197  L 293.091554 226.11809  L 294.124467 232.93072  L 294.468771 233.252379  L 295.157379 226.763913  L 295.501683 227.020992  L 295.845988 227.059421  L 296.190292 228.763427  L 296.8789 247.659552  L 297.223204 241.585803  L 297.567508 230.066419  L 297.911812 230.30295  L 298.600421 244.133832  L 298.944725 248.29675  L 299.289029 246.317489  L 299.633333 238.926617  L 299.977638 235.369466  L 300.666246 237.170493  L 301.01055 239.305956  L 301.354854 240.039771  L 302.043463 229.410101  L 302.387767 229.847393  L 302.732071 228.147599  L 303.076375 225.27573  L 303.420679 228.385389  L 303.764983 233.074759  L 304.109287 235.202265  L 304.453592 236.514058  L 304.797896 233.890833  L 305.1422 229.83669  L 305.486504 232.377607  L 305.830808 239.039565  L 306.175113 243.389146  L 306.519417 245.521329  L 306.863721 245.682735  L 307.552329 239.885959  L 307.896633 240.294103  L 308.585242 241.930367  L 308.929546 242.324379  L 309.27385 239.657519  L 309.962458 229.458406  L 310.995371 225.767978  L 311.339675 225.891971  L 311.683979 226.164888  L 312.028283 226.798999  L 313.061196 234.479116  L 313.749804 245.461697  L 314.094108 242.084146  L 314.438413 234.281364  L 314.782717 233.337042  L 315.471325 242.356997  L 315.815629 244.466951  L 316.159933 243.37691  L 316.848542 233.546373  L 317.192846 232.440679  L 317.53715 233.122622  L 317.881454 235.898677  L 318.225758 239.886481  L 318.570063 239.260815  L 318.914367 235.711818  L 319.602975 232.844926  L 319.947279 230.243033  L 320.291583 230.537184  L 320.635888 232.789932  L 321.324496 234.633255  L 321.6688 234.160196  L 322.013104 232.275822  L 322.357408 233.39775  L 323.046017 240.865559  L 323.390321 242.933698  L 323.734625 243.610313  L 324.423233 239.446474  L 324.767538 239.816207  L 325.111842 241.331278  L 325.456146 240.463066  L 326.489058 231.561503  L 326.833363 231.085599  L 327.521971 234.391458  L 327.866275 233.747561  L 328.899188 228.400358  L 329.243492 229.362565  L 329.587796 231.192568  L 329.9321 233.701963  L 330.276404 237.403974  L 330.620708 238.552814  L 330.965013 235.491948  L 331.309317 233.660513  L 332.342229 240.239867  L 332.686533 240.900171  L 333.030838 239.681839  L 333.375142 237.01825  L 333.719446 235.473194  L 334.06375 235.133217  L 334.408054 235.741275  L 334.752358 237.878541  L 335.096663 238.713299  L 335.785271 234.632666  L 336.129575 233.903258  L 336.473879 232.860044  L 336.818183 232.652506  L 337.506792 235.171716  L 337.851096 235.618876  L 338.1954 235.72601  L 338.884008 234.496577  L 339.916921 237.606424  L 340.261225 237.92218  L 340.605529 237.735315  L 340.949833 236.776306  L 341.294138 236.354153  L 341.982746 238.009663  L 342.32705 238.206526  L 342.671354 237.677779  L 343.359962 234.928038  L 343.704267 234.527834  L 344.048571 234.528373  L 345.425788 233.014824  L 345.770092 232.772  L 346.114396 233.114333  L 346.4587 234.501986  L 346.803004 236.528261  L 347.147308 237.140339  L 347.835917 234.473068  L 348.180221 235.158978  L 348.524525 236.207222  L 349.557437 237.720974  L 349.901742 237.427668  L 350.934654 236.002118  L 351.623263 236.418987  L 351.967567 235.936073  L 352.311871 235.659839  L 352.656175 235.649828  L 353.344783 234.712434  L 353.689088 234.988568  L 354.033392 235.543321  L 354.377696 235.886827  L 354.722 235.877476  L 355.410608 235.058189  L 355.754913 235.333998  L 356.443521 236.245192  L 356.787825 236.553429  L 357.132129 236.693919  L 357.820738 235.950415  L 358.165042 236.046046  L 358.509346 236.353856  L 358.85365 236.406637  L 360.575171 235.661968  L 360.919475 235.33469  L 361.263779 235.314631  L 361.608083 235.474915  L 361.952388 235.287644  L 362.296692 234.811238  L 362.640996 234.650002  L 363.673908 235.506191  L 364.018213 235.383365  L 364.362517 235.467163  L 365.051125 236.184991  L 365.395429 236.294828  L 365.739733 235.791451  L 437.699304 235.791451  L 437.699304 235.791451  "
           style="fill:none;stroke:#0000ff;stroke-linecap:square;stroke-width:1.5;"
           id="path237" />
      </g>
      <g
         id="line2d_18">
        <path
           clip-path="url(#pb8e76abd32)"
           d="M 24.19 190.811243  L 134.023029 190.811243  L 134.367333 191.847511  L 134.711638 192.210691  L 135.055942 192.249442  L 135.400246 191.963174  L 136.088854 190.72787  L 136.777463 190.341114  L 137.810375 189.81994  L 138.154679 189.478426  L 138.498983 189.308521  L 139.8762 190.304909  L 140.909113 190.631583  L 141.253417 191.367217  L 141.597721 193.286496  L 141.942025 194.385178  L 142.286329 192.900747  L 142.630633 190.896887  L 142.974938 190.60642  L 143.319242 190.680031  L 143.663546 190.215885  L 144.00785 190.215712  L 144.352154 190.481307  L 145.040762 190.456099  L 145.385067 190.079973  L 145.729371 189.1498  L 146.073675 189.006456  L 147.450892 192.617232  L 147.795196 191.773978  L 148.1395 190.559169  L 148.483804 190.348798  L 148.828108 190.742654  L 149.172413 190.914743  L 149.516717 190.737308  L 150.205325 189.542878  L 150.549629 189.396139  L 151.238238 190.020314  L 151.582542 191.164  L 151.926846 193.078168  L 152.27115 194.34211  L 152.615454 194.440889  L 152.959758 193.885472  L 154.681279 189.405992  L 155.369888 188.035719  L 155.714192 187.141424  L 156.058496 186.987738  L 156.747104 188.215028  L 157.091408 188.404155  L 157.780017 188.2414  L 158.124321 188.545738  L 158.468625 189.664479  L 158.812929 193.102822  L 159.157233 197.800156  L 159.501538 198.574688  L 160.190146 191.481301  L 160.53445 192.264721  L 160.878754 192.532468  L 161.223058 191.322069  L 161.911667 189.986623  L 162.255971 189.557399  L 162.600275 189.540653  L 162.944579 188.4007  L 163.288883 186.567669  L 163.633188 186.792295  L 164.6661 192.592984  L 165.010404 192.352331  L 165.354708 190.215954  L 165.699013 189.412681  L 166.731925 194.278212  L 167.076229 194.761203  L 167.420533 193.989899  L 168.453446 188.963467  L 168.79775 188.333021  L 169.142054 190.587503  L 169.486358 194.38749  L 169.830663 196.296222  L 170.174967 195.640129  L 170.863575 192.930393  L 171.207879 193.104566  L 171.552183 193.463571  L 171.896488 192.152486  L 173.273704 183.387674  L 173.618008 184.271962  L 173.962312 185.789922  L 174.306617 185.390042  L 174.995225 182.742636  L 175.339529 183.283713  L 175.683833 185.773442  L 176.028138 190.967122  L 176.716746 206.855929  L 177.06105 202.8626  L 177.405354 194.069888  L 177.749658 192.599204  L 178.093963 194.805785  L 178.782571 191.731045  L 179.126875 192.032322  L 179.471179 191.20859  L 180.159788 187.699407  L 180.504092 184.957146  L 180.848396 184.754928  L 181.537004 190.909689  L 181.881308 192.225229  L 182.225613 192.831563  L 182.569917 189.9791  L 182.914221 185.749286  L 183.258525 186.193534  L 183.947133 192.595317  L 184.291438 194.243528  L 184.635742 194.000709  L 184.980046 191.621821  L 185.32435 190.218641  L 185.668654 191.661477  L 186.357263 197.399377  L 186.701567 201.041152  L 187.045871 201.524825  L 188.078783 189.694899  L 188.423088 187.953576  L 188.767392 188.892139  L 189.111696 191.191475  L 189.456 191.364849  L 189.800304 188.667199  L 190.488912 180.599734  L 190.833217 180.399254  L 191.521825 185.980641  L 191.866129 185.207649  L 192.210433 182.937444  L 192.554738 181.646888  L 192.899042 182.754126  L 193.243346 186.12277  L 193.58765 194.399043  L 193.931954 205.657807  L 194.276258 206.680104  L 194.620563 194.217925  L 194.964867 186.236972  L 195.653475 196.36088  L 195.997779 196.215059  L 196.342083 195.925434  L 196.686387 194.543708  L 197.7193 184.172257  L 198.063604 179.930597  L 198.407908 182.461944  L 198.752213 188.614677  L 199.440821 195.535579  L 199.785125 195.584554  L 200.473733 183.993586  L 200.818038 186.911987  L 201.162342 191.999914  L 201.506646 194.870797  L 201.85095 195.893188  L 202.195254 193.723502  L 202.539558 189.829083  L 202.883863 189.6088  L 203.572471 197.476835  L 203.916775 202.478995  L 204.261079 204.793958  L 204.949688 199.479773  L 205.293992 198.485984  L 205.638296 196.868314  L 206.326904 192.392535  L 206.671208 188.780027  L 207.704121 174.421128  L 208.048425 174.56592  L 208.737033 184.900698  L 209.081338 184.96609  L 209.769946 179.067316  L 210.11425 179.29285  L 210.458554 183.302677  L 210.802858 195.842023  L 211.147163 213.964683  L 211.491467 218.167718  L 212.180075 188.365447  L 212.524379 192.374692  L 212.868683 198.800066  L 213.212987 198.645859  L 213.557292 197.512591  L 213.901596 195.13526  L 214.934508 180.842886  L 215.278813 177.329107  L 215.623117 181.228746  L 215.967421 187.770862  L 216.656029 191.350027  L 217.000333 191.843739  L 217.344638 186.65812  L 217.688942 183.26341  L 218.37755 195.868351  L 218.721854 197.791158  L 219.066158 197.175311  L 219.410463 192.956716  L 219.754767 187.238314  L 220.099071 186.483781  L 220.443375 190.747149  L 221.131983 204.432491  L 221.476288 207.788507  L 221.820592 204.616575  L 222.5092 196.174524  L 222.853504 193.150042  L 223.197808 193.104522  L 223.542113 195.822463  L 223.886417 195.312509  L 224.230721 188.886962  L 224.919329 172.568202  L 225.263633 170.835794  L 225.952242 177.261056  L 226.296546 176.989834  L 226.64085 175.385734  L 226.985154 175.286674  L 227.329458 179.074219  L 227.673763 186.713072  L 228.362371 216.454669  L 228.706675 220.301495  L 229.395283 190.496535  L 229.739587 192.237549  L 230.083892 195.507671  L 230.428196 193.234357  L 230.7725 193.123193  L 231.116804 193.412808  L 232.149717 181.413539  L 232.494021 179.310769  L 232.838325 182.903468  L 233.182629 187.732195  L 233.871238 190.499974  L 234.215542 190.572054  L 234.559846 184.426244  L 234.90415 180.55514  L 235.937063 195.625555  L 236.281367 197.119515  L 236.625671 193.622669  L 236.969975 188.667867  L 237.314279 190.281804  L 238.002888 202.488701  L 238.347192 206.739044  L 238.691496 205.75111  L 239.380104 194.47136  L 239.724408 193.52924  L 240.068713 193.219206  L 240.413017 193.738258  L 240.757321 195.796831  L 241.101625 196.375095  L 241.445929 193.220572  L 242.134538 182.348064  L 242.478842 180.009783  L 242.823146 180.482671  L 243.16745 180.146745  L 243.511754 177.313701  L 243.856058 173.362992  L 244.200363 171.239233  L 244.544667 173.409308  L 244.888971 180.429416  L 245.577579 207.928978  L 245.921883 209.789325  L 246.266188 197.944982  L 246.610492 191.679789  L 247.2991 203.78856  L 247.643404 204.155819  L 247.987708 202.671177  L 248.332013 198.230388  L 249.020621 187.298472  L 249.364925 182.396024  L 249.709229 179.927151  L 250.397838 186.721981  L 250.742142 186.151997  L 251.086446 187.11338  L 251.43075 187.550285  L 251.775054 185.116023  L 252.119358 186.30922  L 252.463663 192.189351  L 252.807967 195.460028  L 253.152271 195.820836  L 253.496575 195.096451  L 253.840879 191.675768  L 254.185183 189.481213  L 254.529488 191.293232  L 255.5624 199.139998  L 255.906704 197.543057  L 256.251008 193.393582  L 256.595313 191.210445  L 256.939617 190.918092  L 257.283921 191.722428  L 257.972529 196.216132  L 258.316833 194.726426  L 259.005442 186.860775  L 259.349746 185.856063  L 259.69405 187.42344  L 260.038354 187.921521  L 260.382658 185.449226  L 261.071267 179.075818  L 261.415571 177.292734  L 261.759875 178.182341  L 262.104179 182.873474  L 262.792788 201.500697  L 263.137092 199.653295  L 263.481396 189.969563  L 263.8257 188.066459  L 264.170004 194.458098  L 264.514308 198.6116  L 264.858613 200.107681  L 265.202917 200.716427  L 265.547221 198.106287  L 266.235829 190.756767  L 266.580133 187.037013  L 266.924438 185.234782  L 267.268742 187.337699  L 267.613046 187.819964  L 267.95735 186.210798  L 268.301654 186.291002  L 268.645958 185.133713  L 268.990263 181.938287  L 269.334567 183.233634  L 270.023175 193.891177  L 270.367479 195.98926  L 270.711783 195.247482  L 271.056088 191.897975  L 271.400392 190.236098  L 271.744696 192.194426  L 272.089 195.121826  L 272.433304 196.727818  L 272.777608 196.344268  L 273.466217 192.132222  L 273.810521 192.333638  L 274.154825 192.759481  L 274.499129 192.317261  L 274.843433 192.189965  L 275.187738 192.218367  L 275.532042 190.911127  L 276.22065 187.464925  L 276.564954 187.305594  L 277.253563 190.160398  L 277.597867 190.206946  L 278.630779 185.114742  L 278.975083 185.844074  L 279.319388 189.236796  L 279.663692 194.026322  L 280.007996 195.204882  L 280.696604 187.77138  L 281.040908 189.428461  L 281.385213 192.328865  L 281.729517 193.776821  L 282.073821 194.613558  L 282.418125 194.405793  L 283.106733 192.138059  L 283.795342 190.369071  L 284.139646 190.90573  L 284.48395 191.701086  L 285.172558 189.746801  L 285.516863 189.207319  L 285.861167 187.634969  L 286.205471 186.717559  L 287.238383 190.691501  L 287.582688 191.417981  L 288.271296 190.439639  L 288.6156 191.538238  L 289.304208 194.633966  L 289.648513 195.462865  L 289.992817 195.067544  L 290.681425 191.564663  L 291.025729 190.979944  L 292.058642 190.252425  L 292.74725 189.126194  L 293.091554 189.102777  L 294.124467 190.330518  L 294.468771 190.39155  L 295.157379 189.367186  L 295.845988 189.459057  L 296.190292 189.740275  L 296.8789 192.563244  L 297.223204 191.653334  L 297.567508 189.992011  L 297.911812 190.037784  L 298.600421 191.952164  L 298.944725 192.496643  L 299.289029 192.209639  L 299.633333 191.221924  L 299.977638 190.756723  L 301.354854 191.332473  L 302.043463 190.046417  L 302.387767 190.106621  L 302.732071 189.914585  L 303.076375 189.589936  L 303.420679 189.959151  L 303.764983 190.501424  L 304.453592 190.89236  L 304.797896 190.599352  L 305.1422 190.151482  L 305.486504 190.435072  L 306.175113 191.641186  L 306.519417 191.870743  L 306.863721 191.885803  L 307.552329 191.255113  L 308.929546 191.524042  L 309.27385 191.234726  L 309.962458 190.11006  L 310.306762 189.954394  L 310.651067 190.811243  L 437.699304 190.811243  L 437.699304 190.811243  "
           style="fill:none;stroke:#0000ff;stroke-linecap:square;stroke-width:1.5;"
           id="path240" />
      </g>
      <g
         id="line2d_19">
        <path
           clip-path="url(#pb8e76abd32)"
           d="M 24.19 145.831034  L 78.934363 145.831034  L 79.278667 146.35541  L 79.622971 146.515178  L 80.311579 146.200294  L 81.000188 146.696956  L 81.688796 147.528311  L 82.0331 147.301609  L 83.066012 144.937783  L 83.410317 144.449903  L 83.754621 144.291343  L 84.098925 144.579875  L 84.443229 145.074096  L 84.787533 145.353859  L 85.476142 145.18855  L 86.16475 145.30147  L 87.541967 145.076695  L 87.886271 145.524762  L 88.574879 149.242231  L 88.919183 149.230101  L 89.607792 145.127944  L 90.2964 145.197827  L 90.640704 144.751071  L 90.985008 144.89646  L 91.673617 145.823238  L 92.017921 146.054007  L 92.362225 145.726763  L 92.706529 144.980035  L 93.050833 145.089329  L 94.083746 148.051822  L 94.42805 147.861043  L 95.116658 145.459547  L 96.149571 144.157619  L 96.493875 144.250691  L 97.526787 146.528858  L 97.871092 146.480505  L 98.215396 146.312569  L 98.5597 146.930555  L 99.248308 149.214138  L 99.592613 149.866311  L 99.936917 149.334668  L 100.969829 144.576351  L 101.658438 142.58225  L 102.002742 142.450494  L 102.69135 143.917502  L 103.379958 144.248325  L 104.068567 145.348878  L 104.412871 145.378379  L 104.757175 145.0804  L 105.445783 143.509668  L 105.790087 144.067095  L 106.478696 154.820172  L 106.823 154.614918  L 107.167304 148.218242  L 107.511608 144.459038  L 107.855913 145.303073  L 108.200217 145.009655  L 108.544521 143.481163  L 108.888825 143.580794  L 109.577433 145.196487  L 109.921738 145.758586  L 110.266042 144.412961  L 110.610346 142.158079  L 110.95465 142.511422  L 111.643258 147.824567  L 111.987563 149.417997  L 112.331867 148.40142  L 112.676171 144.973805  L 113.020475 142.915592  L 113.709083 144.898746  L 114.053387 145.108445  L 114.397692 145.744825  L 115.0863 147.817861  L 115.430604 147.685324  L 116.119213 144.523655  L 116.463517 146.244287  L 117.496429 154.538687  L 117.840733 154.452065  L 118.529342 147.406155  L 119.21795 140.965287  L 119.562254 139.002891  L 119.906558 138.450547  L 120.595167 138.488523  L 120.939471 139.354347  L 121.628079 143.63183  L 121.972383 144.504856  L 122.316688 144.160032  L 123.005296 142.145868  L 123.3496 142.211967  L 123.693904 145.612452  L 124.382513 163.046432  L 124.726817 157.566112  L 125.071121 145.672369  L 125.415425 142.00213  L 125.759729 143.663163  L 126.104033 142.762837  L 126.448338 142.318048  L 127.136946 145.470263  L 127.48125 146.429609  L 127.825554 145.804147  L 128.169858 141.585926  L 128.514162 138.8688  L 128.858467 141.914908  L 129.547075 156.079477  L 129.891379 158.160709  L 130.235683 151.624622  L 130.579988 142.421451  L 130.924292 139.383558  L 131.268596 140.45193  L 131.6129 140.675223  L 131.957204 141.452716  L 132.301508 143.440547  L 132.645813 146.299759  L 132.990117 150.260858  L 133.334421 152.320148  L 133.678725 150.824209  L 134.023029 151.03274  L 134.711638 158.470771  L 135.055942 158.896757  L 135.400246 156.347252  L 136.088854 145.064618  L 136.433158 142.68012  L 136.777463 141.495391  L 137.810375 136.706134  L 138.154679 133.591166  L 138.498983 132.074396  L 138.843288 134.556825  L 139.187592 138.234887  L 139.531896 140.332732  L 140.220504 142.267107  L 140.564808 143.616589  L 140.909113 144.255661  L 141.253417 150.66335  L 141.597721 167.143518  L 141.942025 176.298224  L 142.630633 146.545609  L 142.974938 144.141584  L 143.319242 144.761587  L 143.663546 141.038078  L 144.00785 141.097397  L 144.352154 143.242682  L 144.696458 143.087507  L 145.040762 143.119845  L 145.385067 140.326604  L 145.729371 133.503494  L 146.073675 132.634486  L 147.106588 155.239674  L 147.450892 158.257882  L 147.795196 152.352628  L 148.1395 144.150259  L 148.483804 142.796325  L 148.828108 145.388105  L 149.172413 146.488687  L 149.516717 145.368833  L 150.205325 138.157631  L 150.549629 137.409933  L 151.238238 141.277724  L 151.582542 147.828352  L 151.926846 158.454491  L 152.27115 165.167844  L 152.615454 165.380095  L 152.959758 162.114795  L 153.992671 147.059043  L 155.025583 136.125166  L 155.714192 128.81079  L 156.058496 128.387605  L 156.747104 134.368854  L 157.091408 135.37593  L 157.780017 135.025884  L 158.124321 136.458238  L 158.468625 141.162471  L 158.812929 155.011718  L 159.157233 173.38645  L 159.501538 175.956657  L 160.190146 148.350133  L 160.53445 151.210126  L 160.878754 152.102  L 161.223058 147.663326  L 161.911667 142.963472  L 162.255971 141.537496  L 162.600275 141.546346  L 162.944579 137.825317  L 163.288883 131.950114  L 163.633188 132.882239  L 164.6661 151.319228  L 165.010404 150.507955  L 165.354708 144.050965  L 165.699013 141.710096  L 166.387621 152.525719  L 166.731925 155.609083  L 167.076229 156.811324  L 167.420533 154.540898  L 168.453446 140.98015  L 168.79775 139.416475  L 169.142054 145.260014  L 169.486358 154.831048  L 169.830663 159.443094  L 170.174967 157.64932  L 170.519271 153.577521  L 170.863575 150.876039  L 171.207879 151.216187  L 171.552183 151.974552  L 171.896488 148.895666  L 172.9294 133.621007  L 173.273704 129.76025  L 173.618008 131.862574  L 173.962312 135.246974  L 174.306617 134.554727  L 174.995225 129.48523  L 175.339529 130.780262  L 175.683833 135.889221  L 176.028138 146.134669  L 176.716746 176.283719  L 177.06105 168.411036  L 177.405354 151.858527  L 177.749658 149.096062  L 178.093963 153.03285  L 178.782571 147.44767  L 179.126875 147.950162  L 179.471179 146.511952  L 180.159788 140.630964  L 180.504092 136.170334  L 180.848396 135.960797  L 181.537004 145.98753  L 181.881308 148.051057  L 182.225613 148.964004  L 182.569917 144.556446  L 182.914221 138.172618  L 183.258525 138.930114  L 183.947133 148.432676  L 184.291438 150.775403  L 184.635742 150.369916  L 184.980046 146.9706  L 185.32435 145.007977  L 185.668654 146.997678  L 186.357263 154.654777  L 186.701567 159.367965  L 187.045871 159.838159  L 188.078783 144.423193  L 188.423088 142.270122  L 188.767392 143.468118  L 189.111696 146.293634  L 189.456 146.496565  L 189.800304 143.2841  L 190.488912 133.9864  L 190.833217 133.896771  L 191.521825 140.424305  L 191.866129 139.633189  L 192.210433 137.225024  L 192.554738 135.932625  L 192.899042 137.231176  L 193.243346 140.885731  L 193.58765 149.570773  L 193.931954 161.123995  L 194.276258 161.984466  L 194.620563 149.25796  L 194.964867 141.283783  L 195.653475 151.218679  L 195.997779 151.015304  L 196.342083 150.679623  L 196.686387 149.327942  L 198.063604 136.109804  L 198.407908 138.459565  L 198.752213 143.914651  L 199.440821 149.855748  L 199.785125 149.849271  L 200.473733 140.227279  L 200.818038 142.664153  L 201.162342 146.784955  L 201.506646 149.050047  L 201.85095 149.812671  L 202.195254 148.085494  L 202.539558 145.079813  L 202.883863 144.922344  L 203.572471 150.74801  L 203.916775 154.334339  L 204.261079 155.898596  L 204.949688 151.922399  L 205.293992 151.158691  L 205.638296 149.984669  L 206.326904 146.889146  L 206.671208 144.488469  L 207.704121 135.391773  L 208.048425 135.611594  L 208.737033 142.204361  L 209.081338 142.289046  L 209.769946 138.890988  L 210.11425 139.109514  L 210.458554 141.504463  L 210.802858 148.693352  L 211.147163 158.838046  L 211.491467 161.004515  L 212.180075 144.508763  L 212.524379 146.665476  L 212.868683 150.040127  L 213.212987 149.905764  L 213.557292 149.271363  L 213.901596 148.022138  L 214.934508 140.97486  L 215.278813 139.349359  L 215.623117 141.284879  L 215.967421 144.407692  L 216.656029 146.076597  L 217.000333 146.295321  L 217.344638 143.988567  L 217.688942 142.527707  L 218.37755 147.984656  L 218.721854 148.762942  L 219.066158 148.46763  L 219.754767 144.391323  L 220.099071 144.111473  L 220.443375 145.805921  L 221.131983 151.019575  L 221.476288 152.206683  L 221.820592 150.942024  L 222.5092 147.760377  L 222.853504 146.660294  L 223.197808 146.632427  L 223.542113 147.556851  L 223.886417 147.358671  L 224.230721 145.187518  L 224.919329 139.908433  L 225.263633 139.442072  L 225.952242 141.625431  L 226.296546 141.605654  L 226.64085 141.186373  L 226.985154 141.22735  L 227.329458 142.403466  L 227.673763 144.652531  L 228.362371 152.980183  L 228.706675 153.925382  L 229.395283 145.747325  L 229.739587 146.204473  L 230.083892 147.041315  L 230.428196 146.445612  L 231.116804 146.470071  L 232.149717 143.631894  L 232.494021 143.18327  L 233.182629 145.144949  L 233.871238 145.76392  L 234.215542 145.780306  L 234.559846 144.499089  L 234.90415 143.726728  L 235.937063 146.770747  L 236.281367 147.042005  L 236.625671 146.361807  L 236.969975 145.433077  L 237.314279 145.73436  L 238.002888 147.893455  L 238.347192 148.597758  L 238.691496 148.383454  L 239.380104 146.436028  L 240.068713 146.216215  L 240.413017 146.291686  L 240.757321 146.603071  L 241.101625 146.678884  L 241.445929 146.192373  L 242.134538 144.601084  L 242.478842 144.285385  L 242.823146 144.375496  L 243.16745 144.350676  L 244.200363 143.23087  L 244.544667 143.551523  L 244.888971 144.489727  L 245.577579 147.984588  L 245.921883 148.188399  L 246.266188 146.706279  L 246.610492 145.936334  L 247.2991 147.369394  L 247.643404 147.396412  L 247.987708 147.208459  L 248.676317 145.974951  L 249.364925 144.886367  L 249.709229 144.617621  L 250.397838 145.38044  L 250.742142 145.320058  L 251.43075 145.475944  L 251.775054 145.212323  L 252.119358 145.342679  L 252.463663 145.98043  L 252.807967 146.335118  L 253.152271 146.374867  L 253.496575 146.297191  L 254.185183 145.685345  L 254.873792 146.185827  L 255.218096 146.504148  L 255.5624 145.831034  L 437.699304 145.831034  L 437.699304 145.831034  "
           style="fill:none;stroke:#0000ff;stroke-linecap:square;stroke-width:1.5;"
           id="path243" />
      </g>
      <g
         id="line2d_20">
        <path
           clip-path="url(#pb8e76abd32)"
           d="M 24.19 101.100123  L 24.878608 101.471121  L 25.567217 102.045365  L 25.911521 102.148116  L 26.255825 102.119296  L 26.600129 101.875554  L 27.288738 101.013249  L 28.32165 99.217341  L 28.665954 99.488305  L 29.698867 101.618038  L 30.043171 101.825815  L 30.387475 101.484532  L 31.076083 100.402544  L 31.420388 100.069818  L 31.764692 99.916649  L 32.4533 99.165471  L 32.797604 99.350715  L 33.141908 100.44981  L 33.830517 104.387971  L 34.174821 103.976243  L 34.519125 101.779436  L 34.863429 100.496836  L 35.207733 100.338181  L 35.896342 98.817018  L 36.240646 99.11565  L 37.273558 101.920127  L 37.617863 101.554319  L 37.962167 100.161301  L 38.306471 99.335223  L 38.650775 99.785857  L 39.339383 101.667928  L 39.683688 101.955581  L 40.027992 101.206393  L 40.372296 100.105489  L 40.7166 99.50431  L 41.060904 99.341982  L 41.405208 99.622761  L 42.438121 101.564913  L 42.782425 102.598902  L 43.126729 102.727805  L 43.471033 101.764938  L 43.815337 101.279468  L 44.159642 101.674962  L 45.192554 103.782688  L 45.536858 103.211917  L 46.225467 100.506214  L 46.914075 96.699406  L 47.258379 96.162311  L 47.602683 97.304457  L 48.291292 101.50667  L 48.635596 102.650156  L 48.9799 102.146735  L 49.668508 100.2809  L 50.012813 99.414386  L 51.045725 95.001669  L 51.390029 95.865859  L 51.734333 99.785848  L 52.422942 111.370036  L 52.767246 108.878107  L 53.11155 103.10596  L 53.455854 101.074452  L 53.800158 100.988231  L 54.488767 96.852657  L 54.833071 97.532112  L 55.865983 103.648376  L 56.210288 102.376173  L 56.554592 99.895936  L 56.898896 99.28553  L 57.2432 100.354843  L 57.931808 103.687976  L 58.276112 102.771891  L 58.620417 99.45183  L 58.964721 97.700201  L 59.309025 98.049307  L 59.653329 98.056436  L 59.997633 98.273241  L 61.37485 104.485568  L 61.719154 104.10786  L 62.063458 102.652835  L 62.407763 102.856233  L 63.440675 107.974959  L 63.784979 107.814453  L 64.473588 100.410436  L 65.162196 93.55795  L 65.5065 92.284683  L 65.850804 94.161908  L 66.539412 100.837357  L 66.883717 101.819928  L 67.228021 100.783527  L 67.572325 100.127293  L 68.260933 101.63401  L 68.605238 99.915866  L 68.949542 96.085794  L 69.293846 93.587024  L 69.63815 94.242237  L 69.982454 101.079271  L 70.326758 113.66222  L 70.671063 119.812709  L 71.359671 99.779141  L 71.703975 98.042033  L 72.048279 98.193436  L 72.392583 94.100437  L 72.736888 92.060515  L 73.081192 94.561844  L 73.7698 102.100967  L 74.114104 103.189163  L 74.802712 95.97035  L 75.147017 98.140292  L 75.835625 107.093913  L 76.179929 109.438057  L 76.524233 105.087117  L 76.868538 97.099683  L 77.212842 93.620353  L 77.90145 93.775907  L 78.245754 95.136517  L 78.934363 101.769202  L 79.278667 105.554906  L 79.622971 107.029972  L 79.967275 105.077254  L 80.311579 104.221875  L 80.655883 106.065972  L 81.000188 108.810929  L 81.688796 116.503531  L 82.0331 114.416234  L 83.066012 92.64769  L 83.410317 88.207291  L 83.754621 86.811438  L 84.098925 89.496234  L 84.443229 94.018971  L 84.787533 96.570657  L 85.476142 95.170651  L 85.820446 96.102233  L 86.16475 96.248054  L 87.197663 94.301119  L 87.541967 94.556975  L 87.886271 98.324591  L 88.574879 128.312836  L 88.919183 127.868648  L 89.607792 95.408851  L 89.952096 96.119141  L 90.2964 96.084533  L 90.640704 92.837734  L 90.985008 94.017241  L 91.673617 100.795504  L 92.017921 102.409027  L 92.362225 100.133344  L 92.706529 95.086134  L 93.050833 95.905292  L 94.083746 114.961896  L 94.42805 113.541444  L 95.116658 98.603386  L 96.149571 91.217108  L 96.493875 91.902899  L 97.526787 104.609261  L 97.871092 104.29098  L 98.215396 103.359266  L 98.5597 106.483861  L 99.248308 117.615709  L 99.592613 120.518216  L 99.936917 117.646331  L 100.625525 100.595642  L 101.314133 90.412208  L 101.658438 86.507573  L 102.002742 86.167564  L 102.69135 92.805193  L 103.379958 94.407496  L 103.724263 97.135141  L 104.068567 98.949811  L 104.412871 99.094322  L 104.757175 97.983865  L 105.445783 92.259821  L 105.790087 94.424239  L 106.478696 132.597186  L 106.823 131.396226  L 107.167304 109.025342  L 107.511608 96.224174  L 107.855913 99.0974  L 108.200217 98.164056  L 108.544521 93.279688  L 108.888825 93.709056  L 109.577433 98.896267  L 109.921738 100.630958  L 110.266042 96.610415  L 110.610346 90.028261  L 110.95465 91.211734  L 111.643258 106.473277  L 111.987563 110.822038  L 112.331867 107.89396  L 112.676171 98.535356  L 113.020475 93.0875  L 113.709083 98.437716  L 114.053387 99.006663  L 114.397692 100.633871  L 115.0863 105.713414  L 115.430604 105.326606  L 115.774908 100.824679  L 116.119213 97.780854  L 116.463517 101.808031  L 117.152125 115.218113  L 117.496429 120.215189  L 117.840733 119.76604  L 119.562254 86.834573  L 119.906558 85.89905  L 120.250863 86.023198  L 120.595167 86.360798  L 120.939471 88.235014  L 121.628079 96.676755  L 121.972383 98.366034  L 122.316688 97.759985  L 122.660992 95.608149  L 123.005296 94.206789  L 123.3496 94.408618  L 123.693904 100.466647  L 124.382513 130.352144  L 124.726817 120.708891  L 125.071121 100.585686  L 125.415425 94.532191  L 125.759729 97.317753  L 126.104033 95.912421  L 126.448338 95.266411  L 127.136946 100.291367  L 127.48125 101.767659  L 127.825554 100.810148  L 128.169858 94.506736  L 128.514162 90.573016  L 128.858467 95.140103  L 129.547075 115.435232  L 129.891379 118.184709  L 130.235683 108.897471  L 130.579988 96.172388  L 130.924292 92.110443  L 131.268596 93.646383  L 131.6129 94.028296  L 131.957204 95.126536  L 132.301508 97.762849  L 132.645813 101.44908  L 132.990117 106.437358  L 133.334421 108.936852  L 133.678725 106.998725  L 134.023029 107.179341  L 134.711638 115.86572  L 135.055942 116.187783  L 135.400246 113.048902  L 136.088854 99.982745  L 136.433158 97.324114  L 136.777463 96.055395  L 137.810375 91.111257  L 138.154679 87.940467  L 138.498983 86.511612  L 138.843288 89.237631  L 139.187592 93.11846  L 139.531896 95.319852  L 140.909113 99.339457  L 141.253417 105.432179  L 141.597721 120.818268  L 141.942025 129.058604  L 142.630633 101.496888  L 142.974938 99.3414  L 143.319242 99.906628  L 143.663546 96.669236  L 144.00785 96.769858  L 144.352154 98.64578  L 144.696458 98.541289  L 145.040762 98.595589  L 145.385067 96.326474  L 145.729371 90.838696  L 146.073675 90.260471  L 147.106588 108.13431  L 147.450892 110.355707  L 147.795196 105.779219  L 148.1395 99.595897  L 148.483804 98.612227  L 148.828108 100.528025  L 149.172413 101.324336  L 149.516717 100.52206  L 150.205325 95.524098  L 150.549629 95.076058  L 151.238238 97.804007  L 151.582542 102.170986  L 151.926846 109.092322  L 152.27115 113.32032  L 152.615454 113.302097  L 152.959758 111.094446  L 153.992671 101.594963  L 154.681279 96.803425  L 155.369888 93.309953  L 155.714192 91.166971  L 156.058496 91.051553  L 156.747104 94.574022  L 157.091408 95.198479  L 157.780017 95.157888  L 158.124321 95.9761  L 158.468625 98.454086  L 159.157233 114.632459  L 159.501538 115.721419  L 159.845842 107.525182  L 160.190146 102.061909  L 160.53445 103.40279  L 160.878754 103.786554  L 161.223058 101.697216  L 161.911667 99.561357  L 162.255971 98.946065  L 162.600275 98.975622  L 162.944579 97.394534  L 163.288883 94.939492  L 163.633188 95.411694  L 164.321796 101.110546  L 164.6661 103.062294  L 165.010404 102.709248  L 165.354708 100.153351  L 165.699013 99.258729  L 166.387621 103.364951  L 166.731925 104.47084  L 167.076229 104.858073  L 167.420533 103.984041  L 168.109142 100.574695  L 168.453446 99.180227  L 168.79775 98.673857  L 169.142054 100.659866  L 169.486358 103.816414  L 169.830663 105.26998  L 170.174967 104.630796  L 170.519271 103.291602  L 170.863575 102.416656  L 171.207879 102.497136  L 171.552183 102.700655  L 171.896488 101.759618  L 172.9294 97.393497  L 173.273704 96.370441  L 173.618008 97.016828  L 173.962312 97.990919  L 174.306617 97.851427  L 174.995225 96.638473  L 175.339529 97.033481  L 175.683833 98.369262  L 176.028138 100.92541  L 176.716746 108.093539  L 177.06105 106.134735  L 177.405354 102.238541  L 177.749658 101.590364  L 178.093963 102.455562  L 178.782571 101.199397  L 179.126875 101.300262  L 179.471179 100.992869  L 180.159788 99.801467  L 180.504092 98.933479  L 180.848396 98.924239  L 181.537004 100.880371  L 181.881308 101.263014  L 182.225613 101.422901  L 182.569917 100.621935  L 182.914221 99.498231  L 183.258525 99.652108  L 183.947133 101.288013  L 184.291438 101.668098  L 184.635742 101.588847  L 184.980046 101.033113  L 185.32435 100.721294  L 185.668654 101.031485  L 186.357263 102.174165  L 186.701567 102.849184  L 187.045871 102.886477  L 188.078783 100.655401  L 188.423088 100.363829  L 188.767392 100.532364  L 189.111696 100.912283  L 189.456 100.938005  L 189.800304 100.521768  L 190.488912 99.360673  L 190.833217 99.36841  L 191.521825 100.195333  L 191.866129 100.107994  L 192.554738 99.689699  L 192.899042 99.85203  L 193.243346 100.281853  L 193.931954 102.580613  L 194.276258 102.664163  L 194.620563 101.232877  L 194.964867 100.347011  L 195.653475 101.441686  L 196.342083 101.378796  L 196.686387 101.23072  L 198.063604 99.795506  L 198.407908 100.048938  L 198.752213 100.641732  L 199.440821 101.293844  L 199.785125 101.295718  L 200.129429 100.683306  L 200.473733 100.850826  L 437.699304 100.850826  L 437.699304 100.850826  "
           style="fill:none;stroke:#0000ff;stroke-linecap:square;stroke-width:1.5;"
           id="path246" />
      </g>
      <g
         id="patch_3">
        <path
           d="M 24.19 317.72  L 24.19 10.8  "
           style="fill:none;stroke:#000000;stroke-linecap:square;stroke-linejoin:miter;stroke-width:0.8;"
           id="path249" />
      </g>
      <g
         id="patch_4">
        <path
           d="M 437.355 317.72  L 437.355 10.8  "
           style="fill:none;stroke:#000000;stroke-linecap:square;stroke-linejoin:miter;stroke-width:0.8;"
           id="path252" />
      </g>
      <g
         id="patch_5">
        <path
           d="M 24.19 317.72  L 437.355 317.72  "
           style="fill:none;stroke:#000000;stroke-linecap:square;stroke-linejoin:miter;stroke-width:0.8;"
           id="path255" />
      </g>
      <g
         id="patch_6">
        <path
           d="M 24.19 10.8  L 437.355 10.8  "
           style="fill:none;stroke:#000000;stroke-linecap:square;stroke-linejoin:miter;stroke-width:0.8;"
           id="path258" />
      </g>
    </g>
  </g>
  <defs
     id="defs260">
    <clipPath
       id="pb8e76abd32">
      <rect
         height="306.92"
         width="413.165"
         x="24.19"
         y="10.8"
         id="rect263" />
    </clipPath>
  </defs>
</svg>
